<svg width="676" height="569" viewBox="0 0 676 569" fill="none" xmlns="http://www.w3.org/2000/svg">
<path d="M337.95 568.362C524.595 568.362 675.9 559.545 675.9 548.668C675.9 537.79 524.595 528.973 337.95 528.973C151.305 528.973 0 537.79 0 548.668C0 559.545 151.305 568.362 337.95 568.362Z" fill="#F5F5F5"/>
<path d="M109.28 253.767L105.272 283.048C104.052 292.809 102.657 302.569 101.786 312.155C101.612 313.375 101.612 314.595 101.437 315.641L101.263 317.384C101.263 317.209 101.263 316.861 101.263 316.512C101.263 316.164 101.089 315.989 101.089 315.641C101.089 315.466 100.914 315.118 100.914 314.944C100.914 314.769 100.74 314.595 100.74 314.595C100.392 314.246 100.392 314.246 100.566 314.421C100.566 314.595 100.914 314.769 101.089 314.944C101.612 315.292 102.483 315.815 103.355 316.338C107.015 318.081 111.546 319.649 116.078 321.044C125.141 323.832 134.901 326.272 144.313 328.538L143.267 336.904C133.158 336.556 123.224 335.684 113.115 333.767C108.06 332.721 103.006 331.675 97.6029 329.584C96.2086 329.061 94.8143 328.364 93.2457 327.492C92.5485 326.97 91.6771 326.621 90.8056 325.924C89.9342 325.227 89.0627 324.355 88.0169 322.961C87.4941 322.264 87.1455 321.392 86.6226 320.347C86.4483 319.824 86.274 319.127 86.274 318.604C86.274 318.081 86.0997 317.209 86.0997 316.861V314.944C86.0997 313.724 86.0997 312.329 86.274 311.109C86.6226 301 87.6683 291.066 88.7141 281.131C89.7598 271.197 90.9799 261.262 92.5485 251.502L109.28 253.767Z" fill="#903C38"/>
<path d="M166.099 337.427L159.65 343.353C158.082 344.747 155.99 345.096 154.247 344.224L147.101 340.739C147.101 340.739 136.644 340.39 135.075 333.941L137.864 328.887L154.073 327.144C155.816 326.97 157.385 327.318 158.779 328.19L165.402 332.198C167.494 333.244 167.668 335.858 166.099 337.427Z" fill="#903C38"/>
<path d="M127.755 193.812C129.498 203.92 130.892 222.221 123.572 228.67C123.572 228.67 141.001 237.907 152.505 253.768C164.705 244.007 154.422 229.541 154.422 229.541C143.441 226.578 143.964 218.387 146.056 210.718L127.755 193.812Z" fill="#903C38"/>
<path d="M160.522 235.641C160.522 235.641 159.65 227.101 154.945 222.918C151.11 219.432 130.544 221.349 124.095 222.047C122.875 222.221 121.829 222.918 121.307 223.964L116.601 233.724L160.522 235.641Z" fill="#007CFF"/>
<path opacity="0.8" d="M160.522 235.641C160.522 235.641 159.65 227.101 154.945 222.918C151.11 219.432 130.544 221.349 124.095 222.047C122.875 222.221 121.829 222.918 121.307 223.964L116.601 233.724L160.522 235.641Z" fill="white"/>
<path d="M103.877 231.11C91.3285 235.293 88.5399 252.199 89.7599 265.271L115.206 280.957C115.206 280.957 121.307 261.785 121.307 251.502C121.307 240.521 112.418 228.321 103.877 231.11Z" fill="#007CFF"/>
<path d="M108.932 277.123C108.409 277.123 107.712 276.948 107.189 276.425C107.015 276.251 107.015 276.251 106.84 276.077C106.84 275.903 106.666 275.728 106.666 275.728C106.666 275.554 106.492 275.38 106.492 275.205C106.492 275.031 106.492 274.857 106.492 274.683C106.492 273.985 106.666 273.462 107.189 272.94C108.06 272.068 109.629 272.068 110.5 272.94C111.023 273.462 111.198 273.985 111.198 274.683C111.198 274.857 111.198 275.031 111.198 275.205C111.198 275.38 111.198 275.554 111.023 275.728C111.023 275.903 110.849 276.077 110.849 276.077C110.849 276.251 110.675 276.251 110.5 276.425C110.152 276.948 109.455 277.123 108.932 277.123Z" fill="white"/>
<path d="M104.052 275.554C103.18 275.205 102.657 274.334 102.483 273.462C101.786 273.985 100.74 274.334 99.8688 273.811C98.9973 273.462 98.4745 272.591 98.4745 271.545C97.7773 272.068 96.7316 272.242 95.8601 271.719C94.9886 271.197 94.4658 270.325 94.64 269.454C93.9429 269.977 92.8971 269.977 92.0257 269.454C90.9799 268.757 90.6314 267.362 91.1542 266.142C91.8514 265.096 93.2457 264.748 94.4657 265.271C95.3372 265.794 95.6858 266.665 95.6858 267.537C96.383 267.014 97.4287 267.014 98.1259 267.362C98.9973 267.885 99.3459 268.582 99.3459 269.454C100.043 268.931 100.915 268.757 101.786 269.105C102.657 269.454 103.18 270.325 103.18 271.197C103.877 270.674 104.749 270.499 105.62 270.674C106.84 271.197 107.363 272.591 107.015 273.811C106.666 274.682 105.795 275.38 104.749 275.38C104.575 275.728 104.226 275.728 104.052 275.554Z" fill="white"/>
<path d="M89.7598 267.711C89.5855 267.711 89.4112 267.711 89.2369 267.711C89.0626 267.711 88.8884 267.711 88.7141 267.536C88.5398 267.536 88.3655 267.362 88.3655 267.362C88.1912 267.362 88.1912 267.188 88.0169 267.014C87.8426 266.839 87.8426 266.839 87.6683 266.665C87.6683 266.491 87.494 266.316 87.494 266.316C87.494 266.142 87.3198 265.968 87.3198 265.794C87.3198 265.619 87.3198 265.445 87.3198 265.271C87.3198 265.096 87.3198 264.922 87.3198 264.748C87.3198 264.573 87.3197 264.399 87.494 264.225C87.494 264.051 87.6683 263.876 87.6683 263.876C87.6683 263.702 87.8426 263.702 88.0169 263.528C88.1912 263.353 88.1912 263.353 88.3655 263.179C88.5398 263.179 88.5398 263.005 88.7141 263.005C88.8884 263.005 89.0626 262.831 89.2369 262.831C89.9341 262.656 90.8056 263.005 91.3284 263.528C91.5027 263.702 91.5027 263.702 91.677 263.876C91.677 264.051 91.8513 264.225 91.8513 264.225C91.8513 264.399 92.0256 264.573 92.0256 264.748C92.0256 264.922 92.0256 265.096 92.0256 265.271C92.0256 265.445 92.0256 265.619 92.0256 265.794C92.0256 265.968 92.0256 266.142 91.8513 266.316C91.8513 266.491 91.677 266.665 91.677 266.665C91.677 266.839 91.5027 266.839 91.3284 267.014C90.9799 267.362 90.2827 267.711 89.7598 267.711Z" fill="white"/>
<path d="M184.225 255.685C183.18 270.151 179.868 294.552 172.025 335.684L103.877 333.593C105.62 308.495 103.006 289.671 96.7315 245.576C95.6857 237.558 101.437 230.238 109.455 229.367C113.812 228.844 118.866 228.495 123.747 228.495C135.25 228.321 144.661 228.147 154.77 229.367C158.082 229.715 161.568 230.238 164.879 230.935C176.731 233.027 185.097 243.659 184.225 255.685Z" fill="#007CFF"/>
<path d="M164.461 172.6C163.601 172.703 163.033 173.871 163.194 175.209C163.354 176.547 164.181 177.549 165.042 177.445C165.902 177.342 166.469 176.174 166.309 174.836C166.148 173.498 165.321 172.497 164.461 172.6Z" fill="#1A2E35"/>
<path d="M164.008 172.722L167.145 171.328C167.145 171.502 165.751 174.117 164.008 172.722Z" fill="#1A2E35"/>
<path d="M163.659 177.428C163.659 177.428 166.622 183.005 169.411 185.445C167.842 187.363 164.705 186.84 164.705 186.84L163.659 177.428Z" fill="#740606"/>
<path d="M163.31 163.485C163.485 163.311 163.485 162.962 163.31 162.613C163.136 162.265 162.613 162.09 162.265 162.265C158.256 164.182 157.733 167.842 157.733 168.016C157.733 168.539 157.907 168.888 158.43 168.888C158.779 168.888 159.302 168.714 159.302 168.191C159.302 168.016 159.825 165.228 162.962 163.659C163.136 163.659 163.31 163.659 163.31 163.485Z" fill="#1A2E35"/>
<path d="M116.775 174.988C119.738 191.371 120.609 198.343 130.021 205.837C144.139 217.166 163.659 209.846 165.576 192.94C167.319 177.602 162.091 153.376 145.184 148.844C128.452 144.138 113.638 158.605 116.775 174.988Z" fill="#903C38"/>
<path d="M152.853 179.52C155.642 188.583 162.265 210.369 147.624 215.249C136.295 219.084 100.566 222.047 96.5571 201.132C92.3742 179.52 111.546 164.182 111.546 164.182C111.546 164.182 96.2085 151.633 106.143 138.038C118.692 120.435 148.844 130.37 157.908 142.744C166.448 154.945 152.853 179.52 152.853 179.52Z" fill="#1A2E35"/>
<path d="M125.315 218.212C119.564 218.212 112.243 216.992 106.318 214.378C98.3002 210.892 93.42 205.489 92.7228 198.866C89.9342 176.034 111.023 163.485 111.198 163.485L112.069 164.879C111.895 165.053 91.6771 176.905 94.2915 198.692C95.3372 206.36 101.786 210.718 107.015 212.983C117.298 217.515 130.718 217.341 134.03 215.075L135.076 216.469C133.158 217.515 129.498 218.212 125.315 218.212Z" fill="#1A2E35"/>
<path d="M104.923 160.87C104.749 163.833 102.309 167.842 112.418 169.236C122.527 170.805 136.644 170.631 139.433 168.191C142.396 165.751 145.184 159.999 139.084 160.522C133.158 161.045 105.272 155.99 104.923 160.87Z" fill="#007CFF"/>
<path d="M147.276 182.134C149.019 185.445 152.156 187.537 154.945 188.408C159.302 189.628 161.568 185.794 160.348 181.611C159.302 177.777 155.642 172.722 151.285 173.245C147.102 173.768 145.359 178.474 147.276 182.134Z" fill="#903C38"/>
<path d="M253.593 526.707L269.802 526.358L261.959 485.923L245.75 486.271L253.593 526.707Z" fill="#903C38"/>
<path d="M265.794 509.104C270.151 525.138 285.837 542.219 285.837 542.219L263.354 536.467L253.593 522.524L255.336 518.864L265.794 509.104Z" fill="#903C38"/>
<path d="M249.933 516.598C249.933 518.341 249.933 520.433 250.282 522.175C251.153 528.799 254.116 546.576 254.116 546.576H255.685C255.685 546.576 254.29 534.724 254.465 530.367C254.639 526.01 257.428 533.679 260.913 538.036C264.399 542.393 270.499 546.402 280.434 546.75C292.112 547.099 296.643 546.576 292.983 543.788C289.323 540.825 281.306 538.907 281.306 538.907C281.306 538.907 272.068 535.596 265.619 525.836C261.436 519.387 254.29 514.855 251.153 513.287C250.107 513.287 249.933 515.204 249.933 516.598Z" fill="#1A2E35"/>
<path d="M310.935 471.805L331.676 472.503L308.495 438.167L294.203 450.368L310.935 471.805Z" fill="#903C38"/>
<path d="M315.815 457.165C330.804 464.137 354.856 462.742 354.856 462.742L335.336 478.428L318.604 477.208L316.861 473.548L315.815 457.165Z" fill="#903C38"/>
<path d="M312.678 474.943C313.898 476.163 315.467 477.557 317.035 478.603C322.438 482.437 337.253 492.197 337.253 492.197L338.124 490.977C338.124 490.977 328.538 484.006 325.401 480.868C322.264 477.731 329.758 480.868 335.161 481.043C340.564 481.391 347.187 479.3 353.636 471.631C361.131 462.742 363.571 458.734 359.214 459.605C354.856 460.476 348.407 465.531 348.407 465.531C348.407 465.531 340.39 470.411 329.061 468.842C321.741 467.797 313.898 470.237 310.935 471.631C310.412 472.677 311.632 474.071 312.678 474.943Z" fill="#1A2E35"/>
<path d="M148.147 334.638C148.147 334.638 258.648 318.255 269.977 346.664C289.846 395.989 317.907 452.285 317.907 452.285L304.312 463.439C304.312 463.439 256.208 418.821 238.953 369.322C218.561 375.945 153.376 397.209 129.498 397.209C104.052 397.209 93.5942 375.423 102.832 339.519C103.703 336.381 106.666 334.116 109.978 334.116C126.187 334.116 148.147 334.638 148.147 334.638Z" fill="#1A2E35"/>
<path d="M158.779 348.93C158.779 348.93 249.41 346.142 250.107 378.385C251.328 431.544 266.317 507.535 266.317 507.535L249.759 509.104C249.759 509.104 222.744 448.625 215.598 396.686C183.354 398.777 153.55 397.383 129.672 397.383C103.006 397.383 100.74 368.102 126.71 333.767C142.744 333.767 158.779 348.93 158.779 348.93Z" fill="#1A2E35"/>
<path d="M102.832 329.758L100.914 335.684C100.74 336.207 101.263 336.73 101.96 336.73L172.199 338.821C172.897 338.821 173.419 338.473 173.419 338.124L174.291 332.024C174.291 331.675 173.768 331.153 173.071 331.153L104.052 329.061C103.354 329.235 103.006 329.41 102.832 329.758Z" fill="white"/>
<path d="M111.895 337.602H109.978C109.629 337.602 109.28 337.427 109.28 337.079L110.326 329.236C110.326 329.061 110.675 328.887 111.023 328.887H112.941C113.289 328.887 113.638 329.061 113.638 329.41L112.592 337.253C112.592 337.427 112.243 337.776 111.895 337.602Z" fill="#1A2E35"/>
<path d="M166.971 339.344H165.054C164.705 339.344 164.356 339.17 164.356 338.822L165.402 330.978C165.402 330.804 165.751 330.63 166.099 330.63H168.017C168.365 330.63 168.714 330.804 168.714 331.153L167.668 338.996C167.668 339.17 167.319 339.344 166.971 339.344Z" fill="#1A2E35"/>
<path d="M139.433 338.473H137.516C137.167 338.473 136.818 338.299 136.818 337.95L137.864 330.107C137.864 329.933 138.213 329.758 138.561 329.758H140.478C140.827 329.758 141.176 329.933 141.176 330.281L140.13 338.124C140.13 338.299 139.781 338.473 139.433 338.473Z" fill="#1A2E35"/>
<path d="M223.441 261.785H267.537C268.931 261.785 269.977 263.179 269.628 264.574L253.07 321.044C252.722 321.915 252.025 322.612 250.979 322.612H206.883C205.489 322.612 204.443 321.218 204.792 319.824L221.349 263.354C221.698 262.482 222.57 261.785 223.441 261.785Z" fill="#007CFF"/>
<path d="M224.312 263.876L267.188 264.922L250.282 318.255L207.406 317.209L224.312 263.876Z" fill="#E1E1E1"/>
<path d="M222.918 263.354L265.794 263.528L249.933 317.21L207.058 317.035L222.918 263.354Z" fill="white"/>
<path d="M184.225 264.399C184.225 266.142 184.4 268.234 184.574 270.151C184.748 272.068 184.923 274.16 185.271 276.077C185.794 280.085 186.491 283.92 187.188 287.754C188.06 291.589 188.931 295.249 190.326 298.735C191.023 300.477 191.72 302.22 192.417 303.789C192.766 304.66 193.289 305.358 193.637 306.055L194.334 307.101C194.334 307.101 194.16 307.101 194.334 307.101C194.509 307.449 195.729 308.146 197.123 308.669C198.517 309.192 200.26 309.715 202.177 310.238C205.838 311.109 209.846 311.632 213.855 311.981C221.872 312.678 230.238 313.201 238.604 313.375L239.476 321.741C230.935 323.484 222.395 324.53 213.506 324.704C209.149 324.878 204.618 324.704 199.912 324.181C197.646 323.832 195.206 323.484 192.591 322.787C189.977 321.915 187.363 321.044 184.225 318.429C183.528 317.732 182.657 317.035 181.96 315.989L180.914 314.421C180.217 313.375 179.52 312.329 178.997 311.284C177.777 309.192 176.731 306.926 175.685 304.835C173.768 300.477 172.374 296.12 171.154 291.589C169.934 287.231 169.236 282.7 168.539 278.343C168.191 276.077 168.016 273.811 167.842 271.719C167.668 269.454 167.494 267.362 167.494 264.748L184.225 264.399Z" fill="#903C38"/>
<path d="M178.648 238.778C189.629 249.062 187.014 276.077 187.014 276.077L165.925 279.737C165.925 279.737 153.027 260.39 157.559 252.373C162.265 243.833 172.548 233.201 178.648 238.778Z" fill="#007CFF"/>
<path d="M186.84 278.343C186.143 278.343 185.62 277.994 185.097 277.645C184.923 277.471 184.923 277.471 184.748 277.297C184.748 277.122 184.574 277.122 184.574 276.948C184.574 276.774 184.4 276.6 184.4 276.425C184.4 276.251 184.4 276.077 184.4 275.902C184.4 275.205 184.574 274.682 185.097 274.16C185.271 273.985 185.271 273.985 185.446 273.811C185.62 273.811 185.62 273.637 185.794 273.637C185.968 273.637 186.143 273.462 186.317 273.462C187.014 273.288 187.886 273.637 188.409 274.16C188.931 274.682 189.106 275.205 189.106 275.902C189.106 276.077 189.106 276.251 189.106 276.425C189.106 276.6 189.106 276.774 188.931 276.948C188.931 277.122 188.757 277.297 188.757 277.297C188.757 277.471 188.583 277.645 188.409 277.645C188.06 278.168 187.537 278.343 186.84 278.343Z" fill="white"/>
<path d="M167.842 279.562C167.668 278.168 168.714 277.122 169.934 276.948C170.805 276.948 171.677 277.297 172.199 277.994C172.548 277.122 173.245 276.6 174.117 276.425C174.988 276.251 175.86 276.774 176.382 277.471C176.557 276.6 177.254 275.902 178.125 275.728C178.997 275.554 179.868 275.902 180.391 276.6C180.565 275.728 181.263 275.031 182.134 274.857C183.354 274.508 184.748 275.205 185.097 276.6C185.445 277.82 184.748 279.214 183.354 279.562C182.483 279.737 181.437 279.388 180.914 278.691C180.74 279.562 180.042 280.26 178.997 280.434C178.125 280.608 177.08 280.26 176.557 279.388C176.382 280.26 175.511 280.957 174.639 281.131C173.768 281.305 172.722 280.783 172.374 280.085C172.025 280.957 171.328 281.654 170.282 281.654H170.108C168.888 281.828 167.842 280.783 167.842 279.562Z" fill="white"/>
<path d="M165.925 282.003C165.751 282.003 165.576 282.003 165.402 282.003C165.228 282.003 165.054 282.003 164.879 281.828C164.705 281.828 164.531 281.654 164.531 281.654C164.356 281.654 164.356 281.48 164.182 281.306C164.008 281.131 164.008 281.131 163.834 280.957C163.834 280.783 163.659 280.608 163.659 280.608C163.659 280.434 163.485 280.26 163.485 280.086C163.485 279.911 163.485 279.737 163.485 279.563C163.485 279.388 163.485 279.214 163.485 279.04C163.485 278.865 163.485 278.691 163.659 278.517C163.659 278.343 163.834 278.168 163.834 278.168C163.834 277.994 164.008 277.994 164.182 277.82C164.356 277.645 164.356 277.645 164.531 277.471C164.705 277.471 164.879 277.297 164.879 277.297C165.054 277.297 165.228 277.123 165.402 277.123C166.099 276.948 166.971 277.123 167.494 277.82C167.668 277.994 167.668 277.994 167.842 278.168C167.842 278.343 168.016 278.517 168.016 278.517C168.016 278.691 168.191 278.865 168.191 279.04C168.191 279.214 168.191 279.388 168.191 279.563C168.191 279.737 168.191 279.911 168.191 280.086C168.191 280.26 168.191 280.434 168.016 280.608C168.016 280.783 167.842 280.957 167.842 280.957C167.842 281.131 167.668 281.131 167.494 281.306C167.145 281.828 166.448 282.003 165.925 282.003Z" fill="white"/>
<path d="M258.125 304.66L250.805 304.138C249.062 303.963 247.145 304.486 245.75 305.532L232.33 314.595L232.155 320.172C236.513 325.227 245.924 320.695 245.924 320.695L254.639 320.347C256.033 320.347 257.428 319.301 257.776 318.081L260.913 309.366C261.959 307.275 260.391 304.835 258.125 304.66Z" fill="#903C38"/>
<path d="M107.189 552.502H109.106C109.803 552.502 110.5 551.805 110.675 550.933L122.875 466.576H113.638L105.62 550.41C105.446 551.456 106.143 552.502 107.189 552.502Z" fill="#007CFF"/>
<path opacity="0.3" d="M107.189 552.502H109.106C109.803 552.502 110.5 551.805 110.675 550.933L122.875 466.576H113.638L105.62 550.41C105.446 551.456 106.143 552.502 107.189 552.502Z" fill="black"/>
<path d="M81.9168 552.502H83.834C84.5311 552.502 85.2283 551.805 85.4026 550.933L97.6029 466.576H88.3655L80.3482 550.41C80.1739 551.456 80.871 552.502 81.9168 552.502Z" fill="#007CFF"/>
<path opacity="0.3" d="M81.9168 552.502H83.834C84.5311 552.502 85.2283 551.805 85.4026 550.933L97.6029 466.576H88.3655L80.3482 550.41C80.1739 551.456 80.871 552.502 81.9168 552.502Z" fill="black"/>
<path d="M222.744 552.502H220.827C220.129 552.502 219.432 551.805 219.258 550.933L207.058 466.576H216.295L224.312 550.41C224.487 551.456 223.615 552.502 222.744 552.502Z" fill="#007CFF"/>
<path opacity="0.3" d="M222.744 552.502H220.827C220.129 552.502 219.432 551.805 219.258 550.933L207.058 466.576H216.295L224.312 550.41C224.487 551.456 223.615 552.502 222.744 552.502Z" fill="black"/>
<path d="M248.016 552.502H246.099C245.402 552.502 244.704 551.805 244.53 550.933L232.33 466.576H241.567L249.585 550.41C249.759 551.456 248.887 552.502 248.016 552.502Z" fill="#007CFF"/>
<path opacity="0.3" d="M248.016 552.502H246.099C245.402 552.502 244.704 551.805 244.53 550.933L232.33 466.576H241.567L249.585 550.41C249.759 551.456 248.887 552.502 248.016 552.502Z" fill="black"/>
<path d="M280.783 366.359H218.735C207.755 328.19 168.191 298.037 127.581 298.037H107.363C64.8362 298.037 37.4726 331.153 46.1871 371.762C47.7557 379.257 50.5444 386.403 54.0302 393.2L63.7905 452.459C65.0105 460.128 71.1107 466.402 77.3852 466.402H264.225C270.499 466.402 276.6 460.128 277.82 452.459L289.671 380.128C291.066 372.634 287.057 366.359 280.783 366.359Z" fill="#007CFF"/>
<path opacity="0.5" d="M280.783 366.359H218.735C207.755 328.19 168.191 298.037 127.581 298.037H107.363C64.8362 298.037 37.4726 331.153 46.1871 371.762C47.7557 379.257 50.5444 386.403 54.0302 393.2L63.7905 452.459C65.0105 460.128 71.1107 466.402 77.3852 466.402H264.225C270.499 466.402 276.6 460.128 277.82 452.459L289.671 380.128C291.066 372.634 287.057 366.359 280.783 366.359Z" fill="white"/>
<path d="M272.765 88.3655H258.473V90.1084H272.765V88.3655Z" fill="#007CFF"/>
<path d="M206.012 108.932H204.269V100.392C204.269 93.7685 209.672 88.3655 216.295 88.3655H248.016V90.1084H216.295C210.718 90.1084 206.012 94.6399 206.012 100.392V108.932Z" fill="#007CFF"/>
<path d="M375.248 168.539H216.295C212.983 168.539 210.369 165.925 210.369 162.613V100.391C210.369 97.0799 212.983 94.4656 216.295 94.4656H375.248C378.56 94.4656 381.174 97.0799 381.174 100.391V162.788C381 165.925 378.385 168.539 375.248 168.539Z" fill="#007CFF"/>
<path d="M367.579 135.424H223.615C221.524 135.424 219.607 133.681 219.607 131.415C219.607 129.324 221.349 127.407 223.615 127.407H367.579C369.671 127.407 371.588 129.15 371.588 131.415C371.588 133.681 369.845 135.424 367.579 135.424Z" fill="white"/>
<path d="M336.904 151.807H223.79C221.698 151.807 219.781 150.065 219.781 147.799C219.781 145.707 221.524 143.79 223.79 143.79H336.904C338.996 143.79 340.913 145.533 340.913 147.799C340.739 150.065 338.996 151.807 336.904 151.807Z" fill="white"/>
<path d="M272.242 119.215H223.79C221.698 119.215 219.781 117.472 219.781 115.206C219.781 113.115 221.524 111.198 223.79 111.198H272.242C274.334 111.198 276.251 112.94 276.251 115.206C276.251 117.298 274.508 119.215 272.242 119.215Z" fill="white"/>
<path d="M336.556 119.215H288.103C286.011 119.215 284.094 117.472 284.094 115.206C284.094 113.115 285.837 111.198 288.103 111.198H336.556C338.647 111.198 340.564 112.94 340.564 115.206C340.564 117.298 338.821 119.215 336.556 119.215Z" fill="white"/>
<path d="M219.781 163.833V182.657C219.781 186.317 223.964 188.409 226.752 186.143L255.685 163.833H219.781Z" fill="#007CFF"/>
<path d="M464.834 1.04578H305.881C302.569 1.04578 299.955 3.66014 299.955 6.97167V69.3678C299.955 72.6793 302.569 75.2937 305.881 75.2937H431.37L454.202 92.8971C456.991 95.1628 461.174 93.0713 461.174 89.4112V75.2937H464.834C468.145 75.2937 470.76 72.6793 470.76 69.3678V6.97167C470.76 3.66014 468.145 1.04578 464.834 1.04578Z" fill="white"/>
<path d="M456.991 94.4657C455.771 94.4657 454.725 94.1171 453.853 93.4199L431.37 75.9908H306.055C302.395 75.9908 299.257 73.0279 299.257 69.1935V6.79735C299.257 3.13724 302.22 0 306.055 0H465.008C468.668 0 471.805 2.96295 471.805 6.79735V69.1935C471.805 72.8536 468.843 75.9908 465.008 75.9908H462.394V89.2369C462.394 91.3284 461.348 93.0713 459.431 93.9428C458.559 94.2914 457.688 94.4657 456.991 94.4657ZM305.881 1.9172C303.092 1.9172 300.826 4.18298 300.826 6.97163V69.3678C300.826 72.1564 303.092 74.4222 305.881 74.4222H431.719L454.725 92.1999C455.771 93.0713 457.165 93.2456 458.385 92.5485C459.605 92.0256 460.302 90.8055 460.302 89.4112V74.2479H464.66C467.448 74.2479 469.714 71.9821 469.714 69.1935V6.79735C469.714 4.00869 467.448 1.74291 464.66 1.74291H305.881V1.9172Z" fill="#007CFF"/>
<path d="M382.046 42.0042H457.339C459.431 42.0042 461.348 40.2613 461.348 37.9955C461.348 35.904 459.605 33.9868 457.339 33.9868H382.046C379.954 33.9868 378.037 35.7297 378.037 37.9955C378.037 40.2613 379.78 42.0042 382.046 42.0042Z" fill="#007CFF"/>
<path d="M329.41 42.0042H366.708C368.8 42.0042 370.717 40.2613 370.717 37.9955C370.717 35.904 368.974 33.9868 366.708 33.9868H329.41C327.318 33.9868 325.401 35.7297 325.401 37.9955C325.401 40.2613 327.318 42.0042 329.41 42.0042Z" fill="#007CFF"/>
<path d="M344.225 58.3875H457.339C459.431 58.3875 461.348 56.6446 461.348 54.3788C461.348 52.2873 459.605 50.3701 457.339 50.3701H344.225C342.133 50.3701 340.216 52.113 340.216 54.3788C340.39 56.6446 342.133 58.3875 344.225 58.3875Z" fill="#007CFF"/>
<path d="M313.549 25.6208H457.514C459.605 25.6208 461.522 23.8779 461.522 21.6121C461.522 19.5206 459.779 17.6034 457.514 17.6034H313.549C311.458 17.6034 309.541 19.3463 309.541 21.6121C309.541 23.8779 311.284 25.6208 313.549 25.6208Z" fill="#007CFF"/>
</svg>
