<svg width="205" height="82" viewBox="0 0 205 82" fill="none" xmlns="http://www.w3.org/2000/svg">
<rect width="205" height="82" fill="#5B7381"/>
<path d="M191.742 42.8586C191.1 42.2174 190.358 43.2974 189.801 43.753C186.814 46.1155 183.912 48.5455 180.908 50.8911C179.997 51.5999 179.052 52.3593 177.735 52.5618C177.685 51.5999 178.258 51.0093 178.663 50.3849C180.03 48.2586 181.667 46.3011 183.523 44.5293C184.266 43.8205 184.452 43.1286 183.962 42.2174C182.899 40.3105 181.414 40.0236 179.625 41.4749C177.212 43.4324 174.9 45.508 172.285 47.263C169.517 49.1193 166.817 51.0599 163.662 52.5955C163.678 52.2918 163.628 52.123 163.695 52.0218C167.56 45.9805 172.605 41.1036 179.777 38.3699C180.385 38.1336 181.026 38.0324 181.667 37.8805C183.355 37.4924 184.536 38.5049 184.401 40.243C184.367 40.6818 184.131 41.3061 184.688 41.4411C185.363 41.6099 185.515 40.8843 185.717 40.4793C186.46 38.9436 185.7 37.1043 184.03 36.3955C181.836 35.4674 179.558 35.5686 177.297 36.0749C171.407 37.3911 166.817 40.6649 162.548 44.4449C159.679 46.993 156.76 49.5074 153.503 51.6505C152.963 52.0049 152.322 52.8149 151.731 52.3424C151.107 51.8361 151.967 51.1611 152.271 50.6211C157.553 41.3736 163.932 32.8011 171.053 24.6674C172.268 23.2836 173.517 21.8155 175.542 21.2755C176.2 21.1068 176.183 20.6849 175.896 20.1955C175.17 18.913 172.318 18.0186 170.85 18.6261C168.994 19.4024 167.728 20.8199 166.48 22.2036C161.316 27.823 156.996 33.9993 152.693 40.1924C151.663 41.6605 150.853 43.2805 149.385 44.4786C146.382 46.9086 143.563 49.5074 140.29 51.6336C139.716 52.0049 139.075 52.9499 138.417 52.4099C137.893 51.9543 138.687 51.1274 139.024 50.5199C144.289 41.4918 150.516 33.0543 157.468 25.0724C158.802 23.5368 160.067 21.7986 162.362 21.208C162.987 21.0393 162.885 20.533 162.598 20.0774C161.67 18.6599 158.599 17.9511 157.063 18.8624C155.443 19.8243 154.144 21.1405 152.946 22.5074C147.917 28.228 143.428 34.2861 139.277 40.5636C138.062 42.4199 136.729 44.1918 134.907 45.6261C132.662 47.3811 130.536 49.2711 128.14 50.8743C127.212 51.4986 126.334 52.2074 124.849 52.663C126.621 49.3386 128.578 46.5205 130.755 43.8374C131.818 42.5211 132.865 41.1205 134.704 40.5636C135.092 40.4455 135.379 40.0911 135.244 39.7368C134.738 38.4543 133.742 37.5093 132.46 36.9018C131.43 36.4124 130.62 37.0199 129.844 37.678C127.752 39.4836 126.115 41.6268 124.495 43.7699C121.879 47.2461 118.167 49.558 114.606 52.0555C114.268 52.2918 113.745 52.7811 113.323 52.393C112.885 52.0049 113.408 51.5493 113.644 51.1949C116.108 47.5668 118.588 43.9555 121.575 40.648C122.858 39.2305 122.807 38.623 121.626 37.0536C120.647 35.7374 119.483 35.8893 118.2 36.463C117.66 36.6993 117.103 36.9355 116.614 37.2561C112.412 39.9899 108.312 42.8418 104.532 46.048C104.245 46.2843 104.025 46.6555 103.485 46.6386C104.852 44.1749 107.907 40.8843 110.033 39.568C110.37 39.3655 110.708 39.1461 110.64 38.758C110.404 37.4586 109.442 36.6318 108.278 36.0243C107.4 35.5686 106.506 35.7205 105.696 36.3449C104.734 37.1043 103.857 37.9311 103.131 38.8761C99.0303 44.2761 93.7484 48.5118 87.9434 52.258C87.5722 52.4943 87.2347 52.8655 86.6441 52.5786C88.1628 49.4736 90.3397 46.8411 92.8034 44.3943C93.5797 43.6349 93.5966 42.943 93.0734 42.0824C91.9766 40.3105 90.6603 40.0405 88.9559 41.4243C85.8341 43.9386 82.7628 46.5205 79.3203 48.6974C77.2278 50.0136 75.2534 51.4818 72.5703 52.7643C73.4984 50.8068 74.5447 49.4905 75.6247 48.1911C79.5566 43.5505 84.1297 39.6861 90.4747 37.9986C92.4997 37.4586 93.5797 38.2011 93.6472 40.1755C93.6641 40.6143 93.3772 41.188 94.0691 41.4749C95.8578 39.2643 95.3516 37.3068 92.7528 36.2099C90.9641 35.4505 89.0234 35.5011 87.2853 35.9061C78.6791 37.8805 72.3172 42.673 67.8116 49.6424C67.0859 50.7561 66.8834 52.0049 67.0691 53.2874C67.4572 56.1393 70.0222 57.3036 72.6041 55.768C74.1566 54.8399 75.6078 53.743 77.1772 52.8318C78.9659 51.7686 80.2822 50.1318 82.4928 49.0686C82.0203 50.2499 81.6659 51.1443 81.3116 52.0386C80.6197 53.7599 80.8897 54.823 82.2903 55.9536C83.6403 57.0505 85.0409 56.7805 86.3741 55.9874C87.9434 55.0761 89.4791 54.1143 90.8628 52.9499C92.1959 51.8193 93.5291 50.6886 94.8622 49.5749C94.6597 50.6718 94.1703 51.5661 93.8497 52.5111C93.1916 54.4349 93.8328 56.2068 95.4528 56.9999C96.3809 57.4555 97.2078 57.4893 97.3091 56.2574C97.4103 55.1774 98.1022 54.4011 98.8109 53.6418C100.92 51.3974 103.232 49.3218 105.662 47.3643C108.278 45.2549 110.944 43.1793 114.117 41.8124C113.104 43.1286 112.058 44.4111 111.113 45.7611C109.847 47.5836 108.582 49.4061 107.738 51.448C106.995 53.2368 107.502 54.9243 109.037 56.0718C110.522 57.2024 111.822 56.3586 113.104 55.7174C113.779 55.3968 114.387 54.958 114.994 54.5193C116.547 53.3718 118.082 52.1905 119.82 50.8743C119.601 51.5155 119.483 51.9374 119.314 52.3593C118.707 53.8443 118.892 55.1099 120.343 56.1224C121.761 57.118 123.145 56.7805 124.461 56.0211C125.71 55.3124 126.958 54.5699 128.055 53.6418C129.878 52.1061 131.734 50.6043 133.843 48.883C133.523 50.4861 132.713 51.5493 132.527 52.8149C132.291 54.4855 133.32 55.4811 134.569 56.3418C135.7 57.118 136.847 56.7299 137.927 56.0886C139.733 55.0255 141.336 53.743 142.888 52.393C144.154 51.2961 145.487 50.2499 146.787 49.1699C146.803 49.9799 146.567 50.5874 146.297 51.178C145.285 53.3718 145.622 54.8568 147.462 56.1393C148.828 57.1011 150.077 56.848 152.187 55.4643C154.127 54.1986 155.629 52.4268 157.907 51.178C157.907 52.0555 157.806 52.7643 157.924 53.4393C158.43 56.308 160.675 57.3036 163.341 55.8186C165.957 54.3505 168.387 52.6461 170.698 50.7899C171.441 50.1993 172.167 49.558 173.28 49.0518C172.639 50.6886 171.762 51.9543 171.745 53.473C171.711 55.8524 174.175 57.3374 176.487 56.308C178.225 55.5318 179.76 54.5024 181.195 53.3211C184.519 50.6211 187.675 47.7693 190.678 44.7655C191.235 44.1918 192.417 43.5336 191.742 42.8586Z" fill="white"/>
<path d="M94.1872 19.7231C97.8997 17.2256 101.73 14.8799 106.033 13.2937C106.995 12.9393 108.143 12.4499 109.071 13.0574C109.982 13.6481 109.003 14.5256 108.987 15.2681C108.97 15.6731 108.835 16.1287 109.29 16.3481C109.864 16.6349 110.235 16.1962 110.522 15.8418C111.349 14.8293 112.007 13.7324 112.311 12.4837C113.003 9.56432 110.472 7.33682 107.367 8.18057C103.772 9.15932 100.448 10.6781 97.3259 12.5681C90.6434 16.6012 84.6697 21.4106 78.9491 26.5068C72.0134 32.6831 65.6516 39.3149 59.4753 46.1324C56.3366 49.5918 53.3666 53.1524 50.3122 56.6793C53.7716 49.4062 58.0578 42.6224 61.4328 35.4337C63.7109 30.5737 66.1578 25.7306 66.4447 20.2968C66.7147 15.2512 63.6603 12.2981 58.1422 12.1124C53.4172 11.9437 49.0297 13.1418 44.7772 14.7449C34.5678 18.5924 25.7591 24.3806 18.0134 31.5356C15.2966 34.0331 12.8328 36.8174 11.4828 40.2262C10.8416 41.8462 10.6559 43.5168 12.0903 44.9006C13.4741 46.2337 15.2459 45.9974 16.9841 45.6431C17.3384 45.5756 17.6591 45.3731 18.0134 45.2549C18.5534 45.0862 19.1609 44.9343 19.1778 44.3099C19.1947 43.6181 18.5366 43.5506 17.9797 43.4831C16.6128 43.2974 16.5791 42.5043 17.0178 41.5931C17.3216 40.9687 17.7434 40.3949 18.1991 39.8549C22.3166 34.8093 27.1428 30.3543 32.3909 26.3043C37.2172 22.5918 42.3134 19.2337 48.0341 16.7699C51.3247 15.3356 54.7334 14.3737 58.4291 14.6099C61.0109 14.7787 62.1922 16.0781 61.6522 18.3562C61.3316 19.7399 60.9603 21.1574 60.4034 22.4737C57.4672 29.2743 53.9234 35.8218 50.5147 42.4199C47.2747 48.7143 43.8997 54.9581 41.2672 61.5056C40.2547 64.0031 39.2591 66.5512 39.0903 69.2681C39.0059 70.5674 39.7822 71.4618 40.9466 72.0187C42.1616 72.5924 43.3597 72.3562 44.4734 71.6643C44.8447 71.4449 45.3847 71.0399 44.7772 70.8037C43.2247 70.1962 44.1359 69.4874 44.5409 68.8124C45.2328 67.6649 45.9416 66.5174 46.7178 65.4206C51.6116 58.5018 57.2478 52.1231 63.3059 46.0481C72.8403 36.4631 82.7797 27.3506 94.1872 19.7231Z" fill="white"/>
<path d="M64.8922 62.1975C64.2341 61.6068 63.3397 61.3031 62.4622 61.3031C60.4034 61.3031 58.8341 63.0243 58.8341 65.0662C58.8341 67.0743 60.3866 68.7956 62.4453 68.7956C63.3397 68.7956 64.2172 68.4581 64.8922 67.8506V69.2006C64.1834 69.6224 63.2891 69.8418 62.4791 69.8418C59.8634 69.8418 57.6866 67.7493 57.6866 65.1C57.6866 62.3831 59.8634 60.2568 62.5803 60.2568C63.3903 60.2568 64.2003 60.4593 64.8922 60.8812V62.1975Z" fill="white"/>
<path d="M78.2403 69.6392H77.1434V59.0586H78.2403V69.6392Z" fill="white"/>
<path d="M91.4366 66.9563C91.4535 67.935 92.1116 68.8463 93.1578 68.8463C94.0016 68.8463 94.4572 68.4244 94.8622 67.7325L95.7903 68.2556C95.2503 69.2513 94.2547 69.8082 93.141 69.8082C91.4028 69.8082 90.3397 68.4919 90.3397 66.8044C90.3397 65.0494 91.2847 63.7332 93.1241 63.7332C94.9466 63.7332 95.7903 65.0663 95.7903 66.7707V66.9394H91.4366V66.9563ZM94.6935 66.1294C94.5585 65.2688 94.0016 64.695 93.1241 64.695C92.2635 64.695 91.6391 65.3025 91.5041 66.1294H94.6935Z" fill="white"/>
<path d="M113.053 69.6394H111.957V68.745H111.94C111.501 69.3862 110.826 69.825 109.999 69.825C108.261 69.825 107.265 68.3737 107.265 66.7369C107.265 65.1844 108.295 63.75 109.965 63.75C110.809 63.75 111.484 64.1887 111.94 64.8637H111.957V63.9187H113.053V69.6394ZM112.007 66.7875C112.007 65.6737 111.332 64.7456 110.151 64.7456C109.02 64.7456 108.345 65.7412 108.345 66.7875C108.345 67.8675 108.987 68.8631 110.151 68.8631C111.349 68.8462 112.007 67.9012 112.007 66.7875Z" fill="white"/>
<path d="M126.537 64.695H126.553C126.891 64.0875 127.583 63.75 128.275 63.75C129.878 63.75 130.3 64.83 130.3 66.2306V69.6394H129.203V66.3656C129.203 65.3869 129.068 64.7288 127.954 64.7288C126.537 64.7288 126.537 65.9775 126.537 67.0069V69.6225H125.44V63.9187H126.537V64.695V64.695Z" fill="white"/>
<path d="M144.34 61.32C144.34 61.7418 144.002 62.0625 143.58 62.0625C143.158 62.0625 142.821 61.725 142.821 61.32C142.821 60.8981 143.158 60.5437 143.58 60.5437C144.002 60.5437 144.34 60.8981 144.34 61.32ZM144.137 69.6393H143.04V63.9356H144.137V69.6393Z" fill="white"/>
<path d="M157.958 64.695H157.975C158.312 64.0875 159.004 63.75 159.696 63.75C161.299 63.75 161.721 64.83 161.721 66.2306V69.6394H160.624V66.3656C160.624 65.3869 160.489 64.7288 159.375 64.7288C157.958 64.7288 157.958 65.9775 157.958 67.0069V69.6225H156.861V63.9187H157.958V64.695V64.695Z" fill="white"/>
<path d="M179.541 69.5212C179.541 71.4787 178.984 72.8962 176.757 72.8962C175.17 72.8962 174.023 71.9175 174.006 70.3144H175.103C175.103 71.3437 175.812 71.9175 176.807 71.9175C178.157 71.9175 178.444 70.9894 178.444 69.825V68.745H178.427C177.988 69.3862 177.297 69.825 176.487 69.825C174.732 69.825 173.753 68.3737 173.753 66.7369C173.753 65.1844 174.782 63.75 176.436 63.75C177.297 63.75 177.972 64.1888 178.427 64.8975H178.444V63.9187H179.541V69.5212ZM178.512 66.7875C178.512 65.6737 177.837 64.7456 176.655 64.7456C175.525 64.7456 174.85 65.7412 174.85 66.7875C174.85 67.8675 175.491 68.8631 176.655 68.8631C177.853 68.8462 178.512 67.9012 178.512 66.7875Z" fill="white"/>
<path d="M140.003 25.4435C140.678 25.4097 142.669 25.3422 143.665 25.4772L140.526 25.8147L140.509 25.7979C140.34 25.6629 140.172 25.5447 140.003 25.4435Z" fill="#FBF5B5"/>
<path d="M143.378 25.6292C142.095 26.0173 140.543 26.4391 140.07 26.4729C140.29 26.2366 140.442 26.0341 140.509 25.9329L143.378 25.6292Z" fill="#FBF5B5"/>
<path d="M136.425 24.3804C136.813 23.216 136.645 22.136 136.442 21.4272C136.83 20.9379 137.033 17.546 137.05 17.141V17.006L137.893 13.9854C139.429 17.5629 138.99 20.246 138.349 21.866C137.742 23.3679 136.864 24.2622 136.594 24.5154C136.56 24.4647 136.476 24.4141 136.425 24.3804Z" fill="#FBF5B5"/>
<path d="M136.797 27.8229C136.712 27.7891 136.678 27.671 136.662 27.5866C138.028 27.806 139.007 27.3335 139.581 26.9116C139.716 26.8104 139.834 26.7091 139.935 26.6247C140.458 26.6922 143.479 25.7641 144.12 25.5616L147.259 25.2241C142.72 29.7804 138.163 28.3966 136.864 27.8566C136.83 27.8229 136.797 27.8229 136.797 27.8229Z" fill="#FBF5B5"/>
<path d="M136.392 21.2587C136.24 20.8199 136.105 20.5668 136.088 20.5668V20.5499L136.881 17.6812C136.78 19.0649 136.594 20.7862 136.392 21.2587Z" fill="#FBF5B5"/>
<path d="M136.51 25.0723C136.527 24.836 136.577 24.7516 136.594 24.7348C139.632 22.7266 142.399 22.9629 144.188 23.5029C145.774 23.9923 146.888 24.8023 147.259 25.0723L144.103 25.4098C143.277 25.1229 140.07 25.2916 139.783 25.2916C138.973 24.8529 138.231 24.7854 137.691 24.8023C137.117 24.8529 136.695 24.9879 136.51 25.0723Z" fill="#FBF5B5"/>
<path d="M136.678 31.3837C136.83 30.6918 136.864 29.6118 136.24 28.3968C136.29 28.3799 136.341 28.3799 136.375 28.363C136.56 28.5318 137.691 29.5443 138.467 31.2487C139.243 32.9362 139.817 35.653 138.197 39.0787L137.168 35.7543C137.185 35.6193 137.218 34.708 136.56 31.7887H136.543C136.611 31.6705 136.645 31.5355 136.678 31.3837Z" fill="#FBF5B5"/>
<path d="M136.071 32.6325L136.78 34.8768L135.447 32.1262C135.632 32.295 135.835 32.4637 136.071 32.6325Z" fill="#FBF5B5"/>
<path d="M137.033 35.2818L136.206 32.5987C136.257 32.5312 136.375 32.3287 136.493 32.0081C136.881 33.7631 136.999 34.7587 137.033 35.2818Z" fill="#FBF5B5"/>
<path d="M135.48 20.8536C135.683 20.263 136.24 18.6598 136.729 17.7148L135.936 20.5667C135.767 20.6511 135.632 20.7523 135.48 20.8536Z" fill="#FBF5B5"/>
<path d="M133.438 23.5704C132.797 20.3979 134.046 17.9342 135.21 16.4154C136.24 15.0823 137.37 14.2385 137.775 13.9517L136.881 17.1748C136.257 18.0692 135.379 20.7354 135.295 21.0054C134.164 21.9842 133.827 23.4017 133.759 23.7054C133.658 23.7054 133.523 23.6379 133.438 23.5704Z" fill="#FBF5B5"/>
<path d="M133.472 32.6998C133.135 30.9448 133.506 29.6285 133.557 29.4429C133.624 29.4091 133.675 29.3585 133.725 29.3248C133.742 29.3248 133.742 29.3079 133.759 29.291C133.759 29.3079 133.759 29.3248 133.776 29.3416C133.843 29.7298 134.046 30.7929 135.328 31.991L135.261 32.0248L137.05 35.7541L138.079 39.0616C134.856 36.9016 133.793 34.421 133.472 32.6998Z" fill="#FBF5B5"/>
<path d="M133.219 25.8992C133.371 25.916 133.405 25.8992 133.506 25.8148L133.54 25.7979V25.7642C133.54 25.7135 133.573 25.6123 133.607 25.5785C133.607 25.5785 133.624 25.5617 133.658 25.5785C133.725 25.5954 133.759 25.6292 133.793 25.646C133.843 25.6798 133.911 25.7304 134.012 25.6798C134.029 25.6629 134.063 25.646 134.08 25.646C134.13 25.6123 134.198 25.5785 134.232 25.5954C134.248 25.5954 134.248 25.6123 134.265 25.6292V25.646C134.333 25.781 134.383 25.8992 134.569 25.8823C134.62 25.8823 134.653 25.8992 134.67 25.916C134.687 25.9329 134.687 25.9667 134.687 25.9835C134.653 26.0848 134.653 26.2198 134.822 26.3548C134.856 26.3717 134.873 26.4054 134.89 26.4392C134.89 26.4729 134.89 26.4729 134.89 26.4729C134.89 26.4729 134.89 26.4729 134.873 26.4898C134.721 26.591 134.687 26.7092 134.772 26.8442C134.788 26.861 134.805 26.9117 134.788 26.9285C134.788 26.9454 134.755 26.9623 134.755 26.9623C134.586 26.9623 134.485 26.9792 134.468 27.0635C134.434 27.1817 134.4 27.2492 134.383 27.266C134.367 27.266 134.35 27.2492 134.333 27.2492C134.215 27.1985 134.08 27.131 134.012 27.1817C133.995 27.1817 133.995 27.1985 133.978 27.1985C133.928 27.2492 133.86 27.2829 133.81 27.2829C133.776 27.2829 133.759 27.2492 133.725 27.1985C133.624 26.996 133.455 26.9623 133.354 26.9792C133.32 26.9623 133.27 26.9285 133.287 26.861C133.32 26.6923 133.287 26.6248 133.202 26.5742C133.152 26.5404 133.084 26.4729 133.067 26.4392C133.084 26.4223 133.101 26.4223 133.101 26.4054C133.135 26.3885 133.168 26.3548 133.185 26.321C133.236 26.2198 133.253 26.1185 133.202 26.0342C133.185 25.9835 133.168 25.9329 133.185 25.916C133.202 25.8992 133.219 25.8992 133.219 25.8992Z" fill="#231F20"/>
<path d="M133.067 23.5537L133.084 23.5707H133.067V23.5537Z" fill="#FBF5B5"/>
<path d="M133.101 26.3886C133.084 26.4055 133.067 26.4055 133.067 26.4224C133.084 26.4561 133.152 26.5236 133.202 26.5574C133.287 26.6249 133.32 26.6755 133.287 26.8443C133.27 26.9118 133.32 26.9455 133.354 26.9624C133.455 26.9455 133.624 26.9793 133.725 27.1818C133.759 27.2324 133.776 27.2661 133.81 27.2661C133.86 27.283 133.928 27.2324 133.978 27.1818C133.995 27.1818 133.995 27.1649 134.012 27.1649C134.097 27.1143 134.232 27.1818 134.333 27.2324C134.35 27.2493 134.367 27.2493 134.383 27.2493C134.4 27.2324 134.434 27.148 134.468 27.0468C134.485 26.9793 134.586 26.9455 134.755 26.9455C134.772 26.9455 134.788 26.9286 134.788 26.9118C134.805 26.8949 134.788 26.8443 134.772 26.8274C134.687 26.6924 134.721 26.5743 134.873 26.473C134.873 26.473 134.89 26.473 134.89 26.4561C134.89 26.4561 134.89 26.4393 134.89 26.4224C134.89 26.3886 134.856 26.3549 134.822 26.338C134.653 26.2199 134.67 26.0849 134.687 25.9668C134.704 25.933 134.687 25.9161 134.67 25.8993C134.653 25.8655 134.603 25.8655 134.569 25.8655C134.383 25.8824 134.333 25.7643 134.265 25.6293V25.6124C134.265 25.5955 134.248 25.5786 134.232 25.5786C134.198 25.5618 134.13 25.6124 134.08 25.6293C134.063 25.6461 134.029 25.663 134.012 25.663C133.911 25.7136 133.843 25.663 133.793 25.6293C133.759 25.6124 133.725 25.5786 133.658 25.5618C133.624 25.5449 133.624 25.5618 133.607 25.5618C133.573 25.5955 133.557 25.6968 133.54 25.7474V25.7811L133.506 25.8149C133.405 25.8993 133.371 25.9161 133.219 25.8993C133.219 25.8993 133.202 25.8993 133.185 25.8993C133.168 25.9161 133.185 25.9668 133.202 26.0174C133.236 26.1018 133.236 26.203 133.185 26.3043C133.168 26.338 133.135 26.3549 133.101 26.3886ZM133.118 26.6755C133.118 26.6755 132.949 26.5405 132.932 26.4224C132.932 26.3886 132.949 26.3549 132.966 26.338C133 26.3043 133.017 26.2874 133.033 26.2705C133.067 26.2536 133.067 26.2368 133.084 26.2199C133.118 26.1693 133.118 26.1018 133.101 26.068C133.067 26.0005 133.05 25.8824 133.101 25.8149C133.118 25.7811 133.168 25.7474 133.253 25.7474C133.354 25.7643 133.354 25.7474 133.422 25.7136C133.422 25.6461 133.455 25.5111 133.54 25.4605C133.573 25.4436 133.624 25.4099 133.708 25.4436C133.793 25.4774 133.843 25.5111 133.894 25.528C133.945 25.5618 133.945 25.5618 133.962 25.5449C133.978 25.528 133.995 25.528 134.012 25.5111C134.097 25.4605 134.181 25.4099 134.282 25.4436C134.333 25.4605 134.367 25.4943 134.383 25.5449V25.5618C134.451 25.6968 134.468 25.7305 134.552 25.7136C134.653 25.7136 134.721 25.7305 134.772 25.798C134.822 25.8486 134.839 25.9161 134.822 25.9836C134.788 26.068 134.805 26.1355 134.89 26.203C134.991 26.2705 135.008 26.3718 135.008 26.4055C135.008 26.4561 134.991 26.5236 134.957 26.5405C134.957 26.5405 134.94 26.5574 134.923 26.5574C134.856 26.608 134.822 26.6418 134.873 26.7261C134.923 26.7936 134.923 26.8611 134.907 26.9286C134.873 27.013 134.788 27.0468 134.772 27.0468H134.755H134.738C134.67 27.0468 134.603 27.0468 134.569 27.0468C134.518 27.2155 134.468 27.3168 134.4 27.3336C134.383 27.3505 134.35 27.3505 134.333 27.3505C134.316 27.3505 134.282 27.3336 134.232 27.2999C134.181 27.283 134.063 27.2155 134.029 27.2324C133.978 27.283 133.86 27.3674 133.742 27.3336C133.658 27.3168 133.607 27.2661 133.557 27.1649C133.472 26.9961 133.337 27.0299 133.32 27.0299H133.303H133.287C133.219 27.013 133.084 26.9286 133.118 26.743C133.168 26.7093 133.152 26.6924 133.118 26.6755Z" fill="white"/>
<path d="M133.017 29.2236C133.033 29.2574 133.05 29.2743 133.084 29.2911C133.05 29.2743 133.033 29.2574 133.017 29.2236Z" fill="#FBF5B5"/>
<path d="M133.354 29.5274C131.768 32.683 129.355 33.9655 127.6 34.4717C126.03 34.9274 124.697 34.8936 124.242 34.843C124.596 34.573 125.558 33.8136 126.688 32.9024L126.756 32.8686C126.891 32.8011 129.878 31.2824 130.384 30.5567C130.873 30.4892 131.481 30.3542 132.055 30.0674C132.392 29.8986 132.713 29.6792 132.983 29.3755C133.033 29.4261 133.101 29.4599 133.168 29.4936C133.236 29.5442 133.287 29.5442 133.354 29.5274Z" fill="#FBF5B5"/>
<path d="M132.51 23.7898C131.869 23.216 130.857 23.081 130.097 23.0641C129.827 22.9123 127.296 21.4948 126.267 21.2248L123.499 19.4191C126.925 18.9804 129.287 20.0773 130.654 21.1066C131.92 22.0516 132.612 23.0979 132.797 23.4185C132.78 23.4185 132.747 23.4354 132.73 23.4523C132.628 23.5198 132.561 23.6716 132.51 23.7898Z" fill="#FBF5B5"/>
<path d="M132.342 24.4818C132.493 24.4143 132.561 24.2118 132.595 24.0768V24.06L132.628 23.9418C132.645 23.8575 132.73 23.6381 132.831 23.5706C132.848 23.5537 132.882 23.5537 132.898 23.5537C132.898 23.5537 132.882 23.5537 132.882 23.5706C132.763 23.6381 132.747 23.8575 132.73 23.9418L132.797 24.06C132.797 24.195 132.595 24.3975 132.46 24.4818C132.426 24.465 132.358 24.465 132.342 24.4818Z" fill="#FBF5B5"/>
<path d="M132.747 28.768C132.679 28.6161 132.645 28.5655 132.544 28.5317C132.645 28.5486 132.679 28.6161 132.747 28.768C132.78 28.8017 132.797 28.8524 132.814 28.903C132.882 29.0211 132.932 29.1392 133 29.2236C132.932 29.1392 132.865 29.0211 132.814 28.903C132.797 28.8524 132.763 28.8017 132.747 28.768Z" fill="#FBF5B5"/>
<path d="M132.545 28.5319C132.527 28.5319 132.527 28.5319 132.51 28.5319C132.51 28.5148 132.527 28.5148 132.545 28.5319Z" fill="#FBF5B5"/>
<path d="M133.084 26.0679C133.101 26.1185 133.101 26.1692 133.067 26.2198C133.05 26.2367 133.05 26.2535 133.017 26.2704C133 26.2873 132.966 26.3042 132.949 26.3379C132.932 26.3548 132.915 26.3885 132.915 26.4223C132.932 26.5404 133.101 26.6754 133.101 26.6754C133.135 26.7092 133.152 26.7092 133.135 26.8273C133.101 26.996 133.236 27.0804 133.303 27.1142H133.32H133.337C133.354 27.1142 133.489 27.0804 133.573 27.2492C133.624 27.3504 133.675 27.401 133.759 27.4179C133.877 27.4348 133.978 27.3673 134.046 27.3167C134.08 27.3167 134.198 27.3673 134.248 27.3842C134.299 27.401 134.333 27.4179 134.35 27.4348C134.367 27.4348 134.4 27.4348 134.417 27.4179C134.468 27.3842 134.518 27.2998 134.586 27.131C134.62 27.131 134.687 27.1142 134.755 27.131H134.772H134.788C134.805 27.131 134.89 27.0973 134.923 27.0129C134.94 26.9454 134.94 26.8779 134.89 26.8104C134.839 26.726 134.873 26.6923 134.94 26.6417C134.957 26.6417 134.957 26.6248 134.974 26.6248C135.008 26.591 135.025 26.5404 135.025 26.4898C135.025 26.4392 135.008 26.3548 134.907 26.2873C134.822 26.2198 134.805 26.1692 134.839 26.0679C134.856 26.0004 134.839 25.9329 134.788 25.8823C134.738 25.8148 134.653 25.7979 134.569 25.7979C134.468 25.7979 134.468 25.781 134.4 25.646V25.6292C134.367 25.5785 134.333 25.5448 134.299 25.5279C134.215 25.4942 134.113 25.5617 134.029 25.5954C134.012 25.6123 133.995 25.6123 133.978 25.6292C133.945 25.646 133.945 25.646 133.911 25.6123C133.877 25.5785 133.827 25.5448 133.725 25.5279C133.658 25.511 133.59 25.5279 133.557 25.5448C133.472 25.6123 133.455 25.7473 133.438 25.7979C133.371 25.8485 133.371 25.8485 133.27 25.8317C133.185 25.8148 133.135 25.8654 133.118 25.8992C133.033 25.8992 133.05 26.0004 133.084 26.0679ZM132.392 27.9917C132.24 27.941 131.97 27.7723 132.038 27.4179C132.105 27.0635 132.038 27.0129 131.937 26.9454C131.937 26.9454 131.532 26.6417 131.515 26.4054C131.515 26.3548 131.532 26.3042 131.565 26.2704C131.616 26.2029 131.667 26.1692 131.717 26.1354C131.768 26.0848 131.818 26.051 131.852 25.9835C131.953 25.8148 131.953 25.646 131.886 25.511C131.818 25.3592 131.768 25.1398 131.869 24.9879C131.903 24.9204 131.987 24.8529 132.156 24.8698C132.443 24.9035 132.477 24.8698 132.679 24.7348C132.679 24.6167 132.73 24.2792 132.932 24.1442C133.017 24.0767 133.118 24.0598 133.236 24.0935C133.438 24.161 133.557 24.2454 133.641 24.3129C133.759 24.3973 133.793 24.431 133.928 24.3635C133.978 24.3467 134.029 24.3129 134.08 24.2792C134.265 24.1779 134.468 24.0598 134.637 24.1104C134.721 24.1442 134.788 24.2117 134.839 24.3129L134.856 24.3635C135.008 24.701 135.075 24.836 135.379 24.8192C135.582 24.8023 135.75 24.8698 135.852 24.9879C135.936 25.0892 135.97 25.241 135.936 25.376C135.868 25.6123 135.885 25.8148 136.155 26.0173C136.375 26.1692 136.408 26.3548 136.425 26.4392C136.425 26.5573 136.392 26.6585 136.324 26.7092C136.307 26.726 136.29 26.726 136.273 26.7429C136.105 26.861 135.936 27.0129 136.105 27.2998C136.189 27.4517 136.223 27.5867 136.172 27.7217C136.105 27.8904 135.919 27.9579 135.902 27.9579H135.885H135.868C135.615 27.941 135.379 27.9748 135.362 28.0254C135.21 28.5148 135.092 28.6667 135.008 28.7173C134.957 28.7342 134.94 28.7342 134.907 28.7342C134.856 28.7173 134.772 28.6835 134.687 28.6329C134.518 28.5485 134.164 28.3798 134.08 28.4642C133.962 28.5823 133.725 28.7679 133.472 28.7173C133.32 28.6835 133.185 28.5654 133.101 28.3798C132.865 27.8735 132.443 27.9917 132.426 27.9917H132.409H132.392Z" fill="white"/>
<path d="M132.477 28.5148C132.46 28.5148 132.443 28.5148 132.426 28.5148C132.443 28.4979 132.46 28.5148 132.477 28.5148Z" fill="#FBF5B5"/>
<path d="M131.363 27.2323C131.346 27.2154 131.329 27.1985 131.312 27.1648C131.329 27.1817 131.346 27.1985 131.363 27.2323C131.363 27.2323 131.363 27.2154 131.363 27.2323Z" fill="#FBF5B5"/>
<path d="M131.295 27.1649C131.278 27.1312 131.245 27.0974 131.211 27.0806C131.532 27.3168 131.633 27.7218 131.565 27.9243C131.565 27.9243 131.481 28.1606 131.582 28.3293C131.65 28.4306 131.785 28.4812 131.97 28.4981C131.987 28.4981 131.987 28.4981 132.004 28.4981C131.987 28.4981 131.97 28.4981 131.953 28.4981C131.751 28.4981 131.599 28.4306 131.532 28.3293C131.43 28.1774 131.464 27.9412 131.464 27.9243C131.498 27.8231 131.515 27.6543 131.464 27.4856C131.464 27.4349 131.447 27.3843 131.43 27.3506C131.43 27.3506 131.413 27.3506 131.413 27.3674C131.397 27.3168 131.38 27.2831 131.346 27.2493C131.346 27.1987 131.329 27.1818 131.295 27.1649C131.312 27.1649 131.312 27.1649 131.295 27.1649Z" fill="#FBF5B5"/>
<path d="M131.059 26.9792C131.076 26.9792 131.093 26.9964 131.093 26.9964C131.093 26.9964 131.076 26.9964 131.059 26.9792Z" fill="#FBF5B5"/>
<path d="M131.042 26.9624C131.042 26.9624 131.059 26.9624 131.059 26.9794C131.059 26.9794 131.042 26.9794 131.042 26.9624Z" fill="#FBF5B5"/>
<path d="M129.422 24.1611C129.996 25.393 130.755 25.9498 131.008 26.1186C130.958 26.1692 130.924 26.203 130.89 26.2536C130.806 26.3211 130.722 26.3886 130.654 26.4392C127.802 26.1017 125.98 24.2455 124.967 22.7267C124.056 21.3598 123.583 20.0267 123.448 19.5542L126.081 21.2586L126.148 21.3261C126.165 21.343 128.173 23.4186 129.422 24.1611Z" fill="#FBF5B5"/>
<path d="M130.755 26.7768C130.62 26.6755 130.553 26.5911 130.536 26.5574C130.62 26.5742 130.705 26.5743 130.772 26.5911C130.789 26.6586 130.806 26.7599 130.907 26.8611C130.89 26.8611 130.89 26.8611 130.873 26.8611C130.84 26.8274 130.789 26.8105 130.755 26.7768Z" fill="#FBF5B5"/>
<path d="M127.178 32.3454C127.768 31.6198 128.848 30.3204 129.523 29.8479C129.473 30.0673 129.439 30.3035 129.439 30.5398C128.747 31.0967 127.954 31.7379 127.178 32.3454Z" fill="#FBF5B5"/>
<path d="M129.321 23.9418C128.427 23.3511 127.228 22.2205 126.638 21.6299L129.085 23.2161C129.152 23.4693 129.237 23.7224 129.321 23.9418Z" fill="#FBF5B5"/>
<path d="M126.756 21.5286C127.735 21.9167 129.237 22.7436 129.827 23.0473C129.507 23.0642 129.27 23.0811 129.169 23.0979L126.756 21.5286Z" fill="#FBF5B5"/>
<path d="M130.182 30.6074C129.692 31.1305 128.106 32.008 127.245 32.4805C128.022 31.873 128.815 31.2318 129.557 30.6412C129.642 30.6412 129.878 30.6243 130.182 30.6074Z" fill="#FBF5B5"/>
<path d="M126.705 32.7168C125.727 33.493 124.815 34.2186 124.174 34.7249C124.984 31.0799 126.79 29.1562 128.173 28.1943C129.574 27.2155 130.84 26.9962 131.042 26.9624C131.093 27.013 131.16 27.0468 131.245 27.0974C131.262 27.1143 131.295 27.1312 131.312 27.148C131.329 27.1649 131.346 27.1818 131.363 27.2155C131.076 27.418 129.962 28.2955 129.591 29.6287C128.713 30.1518 127.026 32.3118 126.705 32.7168Z" fill="#FBF5B5"/>
<path d="M140.003 25.4436C140.172 25.5448 140.34 25.663 140.509 25.798L140.526 25.8148L143.665 25.4773C142.669 25.3255 140.695 25.4098 140.003 25.4436ZM140.492 25.9498C140.425 26.0511 140.29 26.2536 140.053 26.4898C140.526 26.4561 142.095 26.0342 143.361 25.6461L140.492 25.9498ZM136.662 27.5867C136.678 27.6711 136.712 27.7892 136.797 27.823C136.813 27.823 136.83 27.8398 136.864 27.8567C138.163 28.3967 142.72 29.7805 147.259 25.2242L144.12 25.5617C143.479 25.7642 140.458 26.6923 139.935 26.6248C139.834 26.7261 139.716 26.8273 139.581 26.9117C138.99 27.3336 138.028 27.7892 136.662 27.5867ZM136.594 24.7348C136.577 24.7517 136.527 24.8361 136.51 25.0723C136.695 25.0048 137.117 24.853 137.674 24.8361C138.214 24.8023 138.957 24.8867 139.767 25.3255C140.07 25.3086 143.26 25.1398 144.087 25.4436L147.242 25.1061C146.888 24.8192 145.757 24.0092 144.171 23.5367C142.416 22.963 139.648 22.7267 136.594 24.7348ZM136.51 25.2242C136.493 25.2917 136.476 25.4942 136.695 25.663C136.948 25.8486 137.117 26.0848 137.168 26.1692L140.323 25.8317C138.484 24.4311 136.746 25.123 136.51 25.2242ZM136.678 27.0467C136.543 27.1479 136.611 27.3505 136.628 27.4348C137.978 27.6542 138.923 27.2154 139.497 26.7936C139.918 26.4898 140.188 26.1523 140.323 25.9667L137.218 26.3042C137.185 26.6417 136.813 26.9454 136.678 27.0467ZM136.442 21.4442C136.645 22.153 136.813 23.2161 136.425 24.3973C136.476 24.4311 136.56 24.4817 136.594 24.5492C136.864 24.2961 137.758 23.4017 138.349 21.8998C138.99 20.2798 139.429 17.5967 137.893 14.0192L137.05 17.0398V17.1748C137.033 17.563 136.813 20.938 136.442 21.4442ZM136.088 20.5667C136.088 20.5667 136.24 20.8367 136.392 21.2586C136.594 20.7861 136.78 19.0648 136.881 17.6811L136.088 20.5667ZM136.392 28.363C136.341 28.3798 136.307 28.3967 136.257 28.3967C136.881 29.6286 136.83 30.6917 136.695 31.3836C136.662 31.5355 136.628 31.6705 136.577 31.7886H136.594C137.235 34.708 137.202 35.6361 137.202 35.7542L138.231 39.0786C139.834 35.653 139.277 32.9361 138.501 31.2486C137.708 29.5442 136.594 28.5148 136.392 28.363ZM136.206 32.5986L137.033 35.2817C136.999 34.7586 136.881 33.763 136.493 32.0248C136.375 32.3286 136.24 32.5311 136.206 32.5986ZM136.729 17.7148C136.24 18.6598 135.683 20.2798 135.48 20.8536C135.615 20.7523 135.767 20.6511 135.936 20.5667L136.729 17.7148ZM135.177 23.7898C135.312 24.1442 135.396 24.1948 135.733 24.1948C136.003 24.1948 136.206 24.2623 136.307 24.313C136.847 22.6255 136.24 21.1573 136.037 20.7354L135.177 23.7898ZM135.396 29.1392C135.345 29.2573 135.278 29.3417 135.193 29.3923L136.138 32.4298C136.392 31.9742 137.117 30.388 136.105 28.4305C136.071 28.4305 136.037 28.4473 136.003 28.4473C135.97 28.4473 135.953 28.4642 135.919 28.4642C135.649 28.498 135.565 28.6836 135.463 28.9873C135.447 29.0211 135.43 29.0886 135.396 29.1392ZM136.071 32.6323C135.835 32.4636 135.632 32.2948 135.447 32.1261L136.78 34.8767L136.071 32.6323ZM135.885 20.7692C134.417 21.6467 133.995 23.3342 133.911 23.7223C134.012 23.7055 134.198 23.6548 134.451 23.4355C134.569 23.3342 134.704 23.3005 134.822 23.3342C134.957 23.368 135.042 23.503 135.109 23.6042L135.885 20.7692ZM133.894 29.2236C133.894 29.2573 133.911 29.2911 133.911 29.3417C133.995 29.7636 134.232 31.0292 135.987 32.3961L135.058 29.4261C134.89 29.4598 134.67 29.3923 134.383 29.2236C134.181 29.1055 134.046 29.1392 133.894 29.2236ZM135.21 16.4323C134.046 17.9511 132.797 20.4148 133.438 23.5873C133.523 23.638 133.675 23.7223 133.759 23.7223C133.81 23.4186 134.147 22.0011 135.295 21.0223C135.379 20.7523 136.257 18.0861 136.881 17.1917L137.775 13.9686C137.37 14.2386 136.223 15.0992 135.21 16.4323ZM133.557 29.443C133.506 29.6286 133.135 30.9448 133.472 32.6998C133.793 34.4211 134.856 36.9017 138.079 39.0955L137.05 35.788L135.261 32.0586L135.328 32.0248C134.046 30.8098 133.843 29.7636 133.776 29.3755C133.776 29.3586 133.776 29.3417 133.759 29.3248C133.742 29.3417 133.725 29.3417 133.725 29.3586C133.675 29.3755 133.624 29.4092 133.557 29.443ZM132.477 23.9417C131.633 23.1148 129.928 23.1823 129.355 23.233L131.38 24.5492C131.515 24.448 131.751 24.4311 131.953 24.3973C132.088 24.3805 132.223 24.3636 132.291 24.3298C132.375 24.2792 132.46 24.0598 132.477 23.9417ZM129.726 30.4892C130.3 30.4723 131.953 30.3205 132.882 29.308C132.814 29.2236 132.747 29.1055 132.679 28.9705C132.645 28.9198 132.628 28.8692 132.612 28.8186C132.561 28.7173 132.544 28.6836 132.51 28.6667C132.46 28.6498 132.358 28.633 132.173 28.633C132.122 28.633 132.072 28.633 132.004 28.633C131.818 28.8017 130.89 29.5611 129.726 30.4892ZM131.278 24.6505L129.253 23.3342C129.827 25.1736 130.924 25.8992 131.143 26.0342C131.228 25.9836 131.43 25.7811 131.312 25.4098C131.16 25.0048 131.228 24.7517 131.278 24.6505ZM126.638 21.613C127.245 22.2205 128.443 23.3511 129.321 23.9248C129.237 23.7055 129.152 23.4692 129.068 23.1992L126.638 21.613ZM129.81 23.0642C129.237 22.7436 127.718 21.9336 126.739 21.5455L129.152 23.1148C129.253 23.098 129.49 23.0642 129.81 23.0642ZM127.178 32.3455C127.954 31.738 128.747 31.0967 129.456 30.5398C129.456 30.3036 129.49 30.0673 129.54 29.848C128.865 30.3205 127.768 31.6198 127.178 32.3455ZM127.245 32.4636C128.106 32.008 129.692 31.1136 130.182 30.5904C129.878 30.6242 129.642 30.6242 129.557 30.6242C128.832 31.2148 128.022 31.8561 127.245 32.4636ZM123.516 19.4192L126.283 21.2248C127.296 21.4948 129.827 22.9123 130.114 23.0642C130.873 23.0811 131.886 23.2161 132.527 23.7898C132.561 23.6717 132.645 23.5198 132.763 23.4523C132.78 23.4355 132.814 23.4355 132.831 23.4186C132.645 23.098 131.953 22.0517 130.688 21.1067C129.304 20.0942 126.958 18.9805 123.516 19.4192ZM130.384 30.5736C129.878 31.2992 126.874 32.818 126.756 32.8855L126.688 32.9192C125.558 33.8136 124.596 34.573 124.242 34.8598C124.697 34.8936 126.03 34.9442 127.6 34.4886C129.355 33.9655 131.768 32.683 133.354 29.5442C133.287 29.5611 133.219 29.5611 133.168 29.5442C133.101 29.5273 133.033 29.4936 132.983 29.4261C132.713 29.713 132.392 29.9492 132.055 30.118C131.481 30.388 130.857 30.523 130.384 30.5736ZM124.849 22.7773C123.702 21.073 123.263 19.4023 123.263 19.3854L123.246 19.3011L123.33 19.2842C124.917 19.0648 126.402 19.1323 127.768 19.5036C128.865 19.8073 129.861 20.2967 130.772 20.9717C132.156 22.0011 132.865 23.1486 132.983 23.368C133.084 23.368 133.202 23.4017 133.287 23.4523C133.033 22.0686 133.084 20.7186 133.489 19.4023C133.81 18.3223 134.35 17.2761 135.109 16.2973C136.392 14.6267 137.843 13.7154 137.86 13.6986L137.927 13.6479L137.961 13.7155C138.687 15.3523 139.075 16.9554 139.108 18.4573C139.125 19.6723 138.923 20.8198 138.501 21.883C138.062 22.9967 137.455 23.7898 137.05 24.2286C138.248 23.5198 139.497 23.098 140.762 22.963C141.927 22.8448 143.091 22.9461 144.255 23.3005C146.23 23.908 147.478 25.0048 147.495 25.0048L147.546 25.0555L147.495 25.1061C146.466 26.1692 145.386 26.9792 144.255 27.5529C143.074 28.1436 141.825 28.4811 140.543 28.5486C139.648 28.5823 138.282 28.5148 136.83 27.9073C136.797 27.8905 136.78 27.8904 136.78 27.8904H136.763C136.746 28.0592 136.662 28.1604 136.543 28.2279C136.83 28.4811 137.893 29.4936 138.636 31.1136C139.142 32.2273 139.412 33.3917 139.412 34.6067C139.429 36.1086 139.058 37.6442 138.298 39.2136L138.349 39.3655L138.18 39.2642C136.678 38.2686 135.497 37.1211 134.67 35.8723C133.995 34.8598 133.557 33.7798 133.354 32.6661C133.135 31.4511 133.219 30.4555 133.32 29.8648C132.645 31.1136 131.785 32.143 130.772 32.953C129.861 33.6786 128.798 34.2186 127.65 34.5561C125.693 35.1298 124.073 34.9273 124.056 34.9273L123.988 34.9105L124.005 34.843C124.36 33.1555 124.95 31.6873 125.76 30.4723C126.402 29.4936 127.195 28.6836 128.106 28.0423C129.355 27.1817 130.485 26.8948 130.89 26.8105C130.907 26.8273 130.941 26.8442 130.975 26.8611C130.992 26.878 131.025 26.878 131.042 26.8948L131.059 26.9117C131.076 26.9286 131.093 26.9286 131.093 26.9286C131.127 26.9455 131.16 26.9623 131.194 26.9961C131.228 27.013 131.262 27.0467 131.278 27.0805C131.262 27.0636 131.245 27.0467 131.211 27.0298C131.127 26.9792 131.059 26.9455 131.008 26.8948C130.806 26.9286 129.54 27.148 128.14 28.1267C126.756 29.0886 124.95 30.9955 124.14 34.6573C124.798 34.1511 125.71 33.4086 126.672 32.6492C126.992 32.2442 128.663 30.0842 129.54 29.5779C129.928 28.2448 131.042 27.3673 131.312 27.1648C131.346 27.2155 131.363 27.2492 131.38 27.283C131.042 27.5361 129.625 28.6836 129.557 30.3542C130.637 29.4936 131.481 28.8017 131.785 28.5486C131.633 28.5148 131.515 28.4473 131.43 28.3461C131.278 28.1267 131.38 27.8398 131.397 27.823C131.397 27.8061 131.464 27.6205 131.447 27.4348C131.498 27.6036 131.481 27.7723 131.447 27.8736C131.447 27.8736 131.413 28.1098 131.515 28.2786C131.582 28.3798 131.734 28.4305 131.937 28.4473C131.953 28.4473 131.97 28.4473 131.987 28.4473C132.021 28.4473 132.038 28.4473 132.072 28.4473C132.105 28.4473 132.122 28.4473 132.156 28.4473C132.156 28.4473 132.156 28.4473 132.173 28.4473C132.257 28.4473 132.308 28.4473 132.375 28.4473C132.392 28.4473 132.409 28.4473 132.409 28.4473C132.426 28.4473 132.443 28.4473 132.46 28.4473C132.477 28.4473 132.477 28.4473 132.493 28.4473C132.51 28.4473 132.527 28.4473 132.527 28.4473C132.628 28.4811 132.662 28.5486 132.73 28.6836C132.747 28.7173 132.78 28.7679 132.797 28.8186C132.865 28.9367 132.915 29.0548 132.983 29.1392C133 29.173 133.017 29.1898 133.05 29.2067C133.101 29.2573 133.135 29.2911 133.185 29.2911C133.202 29.2911 133.202 29.2911 133.219 29.2911C133.287 29.308 133.354 29.2742 133.438 29.2404C133.506 29.2067 133.573 29.1561 133.624 29.1223C133.86 28.9705 134.08 28.8186 134.434 29.0042C134.721 29.173 134.923 29.2236 135.058 29.1898C135.143 29.173 135.21 29.1054 135.244 28.9873C135.261 28.9367 135.295 28.8692 135.312 28.8186C135.43 28.4979 135.531 28.2617 135.885 28.2111C135.919 28.2111 135.953 28.2111 135.97 28.1942C136.341 28.1436 136.577 28.093 136.577 27.7386C136.493 27.6205 136.476 27.4517 136.476 27.418C136.442 27.3505 136.324 27.0298 136.543 26.8442C136.881 26.5742 137.033 26.3548 137.016 26.1692C136.982 26.1186 136.83 25.8655 136.56 25.6798C136.29 25.4773 136.29 25.2073 136.324 25.0723C136.324 24.7517 136.392 24.6167 136.425 24.5661C136.408 24.4648 136.257 24.3973 136.257 24.3973L136.189 24.3805V24.3636C136.105 24.3298 135.936 24.2455 135.666 24.2455C135.312 24.2455 135.16 24.1611 135.042 23.9248L135.025 23.9586L134.957 23.7223C134.94 23.638 134.822 23.4017 134.687 23.3511C134.62 23.3342 134.535 23.3511 134.451 23.4355C134.046 23.773 133.793 23.773 133.742 23.7561C133.573 23.773 133.303 23.6042 133.27 23.5705L133.253 23.5536C133.236 23.5367 133.236 23.5367 133.219 23.5367C133.152 23.503 133.084 23.4692 133.017 23.4523C133.017 23.4523 133.017 23.4523 133 23.4523L133.017 23.4692L132.898 23.4355C132.882 23.4355 132.865 23.4355 132.848 23.4355C132.831 23.4355 132.797 23.4355 132.78 23.4523C132.662 23.5198 132.595 23.7392 132.578 23.8236L132.544 23.9417V23.9586C132.51 24.0936 132.443 24.2961 132.291 24.3636C132.207 24.4142 132.072 24.4142 131.92 24.4311C131.903 24.4311 131.869 24.4311 131.852 24.4311C131.802 24.4311 131.751 24.448 131.7 24.448C131.582 24.4648 131.464 24.4817 131.397 24.5492H131.38C131.38 24.5492 131.228 24.7517 131.38 25.2242C131.515 25.6292 131.329 25.8655 131.194 25.9667H131.177L131.076 26.0005C131.059 26.0173 130.975 26.0173 130.941 26.0342H130.924C130.89 26.0511 130.873 26.0848 130.84 26.1017C130.873 26.068 130.907 26.0173 130.958 25.9667C130.688 25.798 129.928 25.2411 129.372 24.0092C128.123 23.2667 126.115 21.1911 126.081 21.1742V21.2586L123.448 19.5373C123.6 20.0098 124.056 21.343 124.967 22.7098C125.98 24.2286 127.802 26.0848 130.654 26.4223C130.57 26.4898 130.536 26.5404 130.536 26.5404C129.321 26.3717 128.19 25.933 127.178 25.2242C126.3 24.6167 125.524 23.7898 124.849 22.7773Z" fill="#FBF5B5"/>
</svg>
