<svg width="100" height="60" viewBox="0 0 100 60" fill="none" xmlns="http://www.w3.org/2000/svg">
<path d="M19.8697 47.7643L28.6645 57.6547H38.9399L25.1703 42.1972C25.1703 42.1972 51.0512 18.9221 65.3243 11.3118C65.3243 11.3118 27.2135 24.1931 8.73557 59.846C8.73557 59.846 17.3527 49.8075 19.8697 47.7643Z" fill="black"/>
<path d="M3.99763 30.1155H14.273L18.1818 34.7942C18.1818 34.7942 40.9831 10.9861 72.2239 0C72.2239 0 37.6073 15.7832 0 59.1353C0 59.1353 7.69914 46.3133 13.5623 40.4501L3.99763 30.1155Z" fill="black"/>
<path d="M37.7258 36.2156H39.621V49.6595H37.7258V36.2156ZM38.9991 47.8531H42.0492C43.056 47.8531 43.8259 47.5866 44.3589 47.0832C44.8919 46.5798 45.188 45.8395 45.188 44.8919V40.9239C45.188 39.9763 44.9215 39.2656 44.3589 38.7326C43.8259 38.2292 43.056 37.9627 42.0492 37.9627H38.9991V36.1563H41.9899C43.056 36.1563 44.0036 36.334 44.7439 36.719C45.5138 37.1039 46.106 37.637 46.491 38.3773C46.9055 39.0879 47.0832 39.9763 47.0832 40.9831V44.8031C47.0832 45.8099 46.8759 46.6982 46.491 47.4089C46.0764 48.1196 45.5138 48.6823 44.7439 49.0672C43.974 49.4522 43.056 49.6298 41.9603 49.6298H38.9695V47.8531H38.9991Z" fill="black"/>
<path d="M49.9852 36.2156H51.8804V49.6595H49.9852V36.2156ZM50.8736 36.2156H58.6023V38.0219H50.8736V36.2156ZM50.8736 42.0788H57.5955V43.8851H50.8736V42.0788ZM50.8736 47.8531H58.6023V49.6595H50.8736V47.8531Z" fill="black"/>
<path d="M64.3767 49.8075C64.3767 49.8075 64.0805 49.7483 63.5179 49.6298C62.9257 49.5114 62.3926 49.3337 61.8892 49.0672C61.3858 48.8303 60.912 48.5046 60.4679 48.1492L61.6523 46.6983C62.1558 47.1424 62.7184 47.4682 63.3402 47.7051C63.9621 47.942 64.6136 48.0308 65.3539 48.0308C66.3311 48.0308 67.0714 47.8531 67.634 47.4978C68.1966 47.1424 68.4335 46.639 68.4335 45.9579C68.4335 45.4842 68.3151 45.1288 68.0782 44.8327C67.8413 44.5662 67.5155 44.3589 67.1306 44.2108C66.7456 44.0924 66.2422 43.9443 65.65 43.8555C65.6204 43.8555 65.6204 43.8555 65.5908 43.8555C65.5611 43.8555 65.5611 43.8555 65.5315 43.8555L65.3835 43.8259C64.4951 43.6778 63.7548 43.5001 63.1922 43.2929C62.6295 43.0856 62.1558 42.7302 61.7412 42.2268C61.3266 41.7234 61.1489 40.9831 61.1489 40.0355C61.1489 39.2064 61.3266 38.4957 61.7116 37.9035C62.0965 37.3112 62.6295 36.867 63.3402 36.5709C64.0509 36.2748 64.9097 36.0971 65.9165 36.0971C66.3903 36.0971 66.8641 36.1564 67.3379 36.2452C67.8117 36.3636 68.2558 36.5117 68.7296 36.719C69.1738 36.9263 69.618 37.1928 70.0622 37.4889L68.9961 38.9991C68.4927 38.6142 67.9597 38.3476 67.4563 38.1404C66.9529 37.9627 66.4495 37.8442 65.9165 37.8442C64.9985 37.8442 64.2878 38.0219 63.7844 38.4069C63.281 38.7622 63.0145 39.2952 63.0145 39.9763C63.0145 40.4501 63.133 40.8054 63.3995 41.072C63.666 41.3385 63.9917 41.5457 64.3767 41.6642C64.7616 41.7826 65.3242 41.9307 66.0053 42.0492C66.0349 42.0492 66.0645 42.0492 66.0645 42.0492C66.0942 42.0492 66.1238 42.0492 66.1238 42.0492C66.1534 42.0492 66.183 42.0492 66.2126 42.0788C66.2422 42.0788 66.2718 42.0788 66.3014 42.1084C67.1306 42.2861 67.782 42.4637 68.3447 42.7006C68.8777 42.9375 69.3515 43.2929 69.7068 43.7963C70.0622 44.2997 70.2695 45.0104 70.2695 45.8691V45.8987C70.2695 46.7279 70.0622 47.4089 69.6772 48.0012C69.2923 48.5934 68.7296 49.0376 67.9893 49.3337C67.249 49.6298 66.3607 49.7779 65.3242 49.7779C64.7024 49.8075 64.3767 49.8075 64.3767 49.8075Z" fill="black"/>
<path d="M74.6817 49.6595H72.7865V36.2156H74.6817V49.6595Z" fill="black"/>
<path d="M87.2076 42.4045V44.7439C87.2076 45.7507 87.0003 46.6094 86.6153 47.3793C86.2304 48.1492 85.6677 48.7415 84.957 49.156C84.2464 49.5706 83.4172 49.7779 82.4696 49.7779C81.522 49.7779 80.6929 49.5706 79.9526 49.1857C79.2419 48.8007 78.6793 48.2381 78.2943 47.5274C77.9094 46.8167 77.7021 45.9876 77.7021 45.04V41.072C77.7021 40.0651 77.9094 39.2064 78.2943 38.4365C78.6793 37.6666 79.2419 37.1039 79.9526 36.6598C80.6633 36.2156 81.4924 36.0379 82.44 36.0379C83.2099 36.0379 83.9206 36.2156 84.5721 36.5413C85.2236 36.867 85.7566 37.3408 86.2008 37.9331C86.6449 38.5253 86.9411 39.236 87.0891 40.0355H85.0459C84.9274 39.5914 84.7498 39.2064 84.4833 38.8807C84.2167 38.5549 83.9206 38.318 83.5357 38.1404C83.1803 37.9627 82.7954 37.8739 82.4104 37.8739C81.8478 37.8739 81.374 37.9923 80.9594 38.2588C80.5448 38.5253 80.2191 38.9103 79.9822 39.3841C79.7453 39.8579 79.6269 40.4205 79.6269 41.0423V45.0104C79.6269 45.6026 79.7453 46.106 79.9822 46.5206C80.2191 46.9648 80.5448 47.2905 80.989 47.5274C81.4036 47.7643 81.907 47.8827 82.4696 47.8827C83.0323 47.8827 83.5061 47.7643 83.9206 47.4978C84.3352 47.2609 84.6609 46.8759 84.8978 46.4021C85.1347 45.9283 85.2532 45.3657 85.2532 44.7142V44.122H82.5289V42.3157H87.2076V42.4045Z" fill="black"/>
<path d="M90.08 36.2156H91.7975L98.3713 46.6094L98.1344 46.8463V36.2156H100V49.6595H98.2825L91.7086 39.4137L91.9455 39.1768V49.6595H90.08V36.2156Z" fill="black"/>
</svg>
