<?xml version="1.0" standalone="no"?>
<!DOCTYPE svg PUBLIC "-//W3C//DTD SVG 20010904//EN"
 "http://www.w3.org/TR/2001/REC-SVG-20010904/DTD/svg10.dtd">
<svg version="1.0" xmlns="http://www.w3.org/2000/svg"
 width="1600.000000pt" height="1600.000000pt" viewBox="0 0 1600.000000 1600.000000"
 preserveAspectRatio="xMidYMid meet">
<metadata>
Created by potrace 1.14, written by Peter Selinger 2001-2017
</metadata>
<g transform="translate(0.000000,1600.000000) scale(0.100000,-0.100000)"
fill="#000000" stroke="none">
<path d="M11448 12759 c-10 -5 -18 -7 -18 -3 0 3 -6 2 -12 -3 -7 -6 -51 -23
-98 -38 -47 -15 -89 -31 -95 -35 -5 -3 -39 -17 -75 -29 -36 -12 -74 -26 -85
-31 -11 -5 -45 -19 -75 -30 -30 -11 -64 -24 -75 -29 -74 -32 -252 -104 -260
-106 -5 -1 -23 -8 -40 -15 -16 -7 -43 -18 -60 -25 -33 -14 -49 -21 -210 -90
-185 -80 -259 -113 -355 -158 -25 -12 -47 -22 -50 -23 -7 -1 -118 -53 -225
-105 -49 -24 -92 -44 -95 -45 -20 -4 -106 -48 -108 -55 -2 -5 -9 -9 -15 -9
-16 0 -241 -112 -249 -124 -4 -6 -8 -8 -8 -4 0 7 -209 -97 -224 -113 -6 -5
-18 -9 -27 -9 -10 0 -19 -3 -21 -7 -3 -8 -23 -19 -203 -111 -49 -25 -92 -49
-95 -52 -4 -4 -81 -46 -185 -99 -16 -9 -32 -18 -35 -21 -6 -6 -40 -25 -93 -52
-23 -12 -53 -30 -66 -40 -13 -10 -27 -15 -32 -12 -5 3 -9 1 -9 -4 0 -4 -19
-18 -42 -31 -24 -12 -50 -26 -58 -31 -57 -36 -223 -130 -231 -130 -5 0 -9 -3
-9 -7 0 -5 -23 -19 -50 -32 -28 -14 -50 -28 -50 -32 0 -4 -8 -9 -17 -13 -10
-3 -31 -14 -48 -24 -43 -27 -95 -58 -135 -82 -19 -11 -66 -40 -105 -65 -38
-25 -79 -49 -90 -55 -25 -12 -295 -185 -312 -200 -7 -5 -14 -10 -17 -10 -3 0
-45 -27 -94 -60 -50 -33 -93 -60 -97 -60 -3 0 -13 -6 -20 -12 -30 -27 -44 -38
-49 -38 -8 0 -101 -64 -104 -72 -2 -5 -7 -8 -12 -8 -5 0 -43 -24 -85 -52 -42
-29 -84 -57 -94 -63 -9 -5 -18 -12 -21 -15 -3 -3 -41 -30 -85 -60 -102 -68
-139 -94 -145 -100 -3 -3 -41 -30 -85 -59 -44 -30 -81 -59 -83 -63 -2 -4 -8
-8 -13 -8 -5 0 -37 -21 -71 -47 -35 -25 -82 -60 -106 -77 -23 -17 -58 -42 -76
-56 -18 -14 -44 -33 -57 -42 -90 -65 -166 -121 -179 -131 -8 -7 -89 -68 -180
-136 -91 -68 -177 -134 -191 -145 -14 -12 -40 -32 -59 -46 -65 -49 -296 -231
-323 -255 -15 -14 -31 -25 -36 -25 -5 0 -11 -3 -13 -7 -3 -8 -41 -41 -119
-103 -60 -49 -333 -273 -339 -280 -3 -3 -32 -27 -65 -54 -33 -27 -64 -54 -70
-60 -5 -7 -32 -29 -59 -51 -27 -22 -59 -49 -71 -60 -11 -11 -34 -31 -51 -45
-54 -46 -167 -145 -195 -170 -15 -14 -45 -41 -66 -60 -49 -43 -195 -175 -237
-214 -148 -137 -226 -210 -346 -326 -77 -75 -140 -135 -140 -134 0 0 -25 -24
-55 -54 -30 -30 -55 -58 -55 -62 0 -5 -8 -11 -17 -15 -13 -4 -25 2 -42 22 -13
15 -35 42 -50 58 -14 17 -42 50 -61 75 -19 25 -44 54 -55 66 -11 11 -56 65
-100 119 -44 54 -88 107 -98 119 -11 11 -33 38 -50 59 -18 22 -40 49 -50 60
-57 67 -97 115 -113 135 l-19 22 -770 1 c-423 0 -794 0 -823 -1 l-53 0 50 -52
c27 -29 64 -69 81 -88 18 -19 78 -84 134 -144 55 -60 117 -126 136 -147 19
-21 73 -79 120 -130 47 -51 105 -114 130 -140 25 -27 74 -80 110 -119 36 -39
85 -93 110 -119 25 -26 83 -89 130 -140 47 -51 101 -109 120 -130 19 -21 78
-84 130 -141 52 -56 111 -119 130 -140 19 -20 61 -65 92 -100 l57 -64 -64 -65
c-91 -94 -142 -150 -250 -276 -33 -38 -63 -72 -66 -75 -3 -3 -36 -43 -74 -90
-37 -47 -71 -87 -74 -90 -3 -3 -25 -30 -48 -61 -23 -31 -48 -63 -57 -72 -9 -8
-16 -18 -16 -22 0 -4 -6 -12 -13 -19 -32 -34 -317 -413 -317 -422 0 -7 -72
-97 -85 -106 -5 -4 -6 -8 -2 -8 5 0 -3 -15 -17 -33 -38 -47 -34 -41 -131 -182
-146 -211 -169 -246 -185 -270 -8 -12 -52 -77 -98 -144 -45 -67 -82 -125 -82
-130 0 -5 -3 -11 -7 -13 -5 -1 -47 -64 -96 -138 -48 -74 -92 -140 -97 -147 -6
-7 -15 -24 -22 -38 -6 -14 -15 -25 -20 -25 -4 0 -8 -5 -8 -10 0 -10 -68 -119
-81 -130 -3 -3 -9 -12 -13 -20 -8 -17 -21 -38 -59 -97 -15 -24 -27 -47 -27
-53 0 -5 -4 -10 -9 -10 -5 0 -11 -8 -15 -17 -6 -19 -27 -54 -37 -63 -3 -3 -14
-21 -25 -40 -10 -19 -25 -41 -31 -48 -7 -7 -13 -19 -13 -25 0 -7 15 4 32 23
67 75 115 129 158 179 51 60 125 143 157 178 12 13 50 56 85 95 91 103 198
222 258 288 14 15 56 61 94 103 38 42 87 96 110 120 22 25 78 85 124 135 46
50 98 106 115 124 18 18 86 91 152 162 134 142 179 189 433 455 225 234 1021
1030 1221 1221 83 80 185 177 225 215 75 73 281 266 400 376 38 35 84 78 101
94 18 17 72 66 121 110 48 44 101 93 118 109 41 38 183 166 210 189 12 10 54
49 95 85 89 81 79 72 176 157 44 39 82 72 85 75 3 3 36 32 74 65 38 33 81 71
95 84 14 13 43 37 65 55 21 17 53 45 70 61 18 17 52 46 77 67 24 20 55 46 69
58 14 12 45 39 70 60 25 21 55 47 66 57 12 10 41 34 64 53 40 33 78 65 110 93
14 12 142 120 165 139 6 5 21 18 35 29 14 11 40 33 59 47 19 15 41 34 50 43 9
8 48 41 86 71 66 53 330 266 405 327 19 16 64 51 100 79 58 45 95 74 133 107
7 6 28 22 47 36 19 15 46 36 59 48 13 11 27 21 30 21 3 0 20 14 38 30 18 17
37 30 42 30 6 0 11 3 11 8 0 4 17 18 37 32 21 14 45 32 53 40 9 8 31 26 50 40
41 31 102 77 115 88 6 4 105 79 220 165 116 87 217 163 225 170 8 7 114 84
235 171 300 217 290 209 293 218 2 4 10 8 18 8 8 0 14 5 14 10 0 6 7 10 15 10
8 0 15 3 15 8 0 4 25 23 55 42 30 19 54 38 55 43 0 4 7 7 15 7 8 0 15 5 15 10
0 6 5 10 11 10 6 0 17 6 24 13 31 27 44 37 50 37 4 0 26 16 49 35 24 19 46 35
50 35 3 0 46 28 94 63 48 35 186 130 307 211 121 82 228 155 238 164 9 8 17
11 17 6 0 -5 4 -4 8 2 4 6 52 39 107 74 55 36 102 67 105 70 3 4 33 23 68 44
34 21 68 43 75 50 6 7 17 13 22 15 6 1 19 8 30 16 50 37 258 165 266 165 5 0
9 3 9 8 0 4 25 20 55 37 30 16 55 33 55 37 0 4 4 8 10 8 5 0 34 16 64 35 30
19 60 35 66 35 5 0 10 4 10 9 0 5 15 16 33 25 17 9 61 34 96 56 34 22 66 40
69 40 3 0 20 11 37 25 18 13 35 22 37 20 3 -3 13 4 23 15 10 11 21 20 26 20 6
0 144 80 244 142 17 10 42 23 58 29 15 6 27 15 27 20 0 5 4 9 8 9 5 0 73 36
151 80 79 44 147 80 151 80 5 0 10 3 12 8 2 4 32 23 68 41 36 19 68 38 71 44
3 5 9 8 13 8 9 -1 40 12 46 18 3 3 37 22 75 42 39 21 115 61 170 89 129 68
156 82 237 118 36 17 69 36 73 41 8 13 5 13 -17 0z"/>
<path d="M10400 10973 c-34 -13 -447 -176 -470 -186 -14 -5 -27 -11 -30 -12
-3 -1 -18 -8 -35 -15 -16 -7 -36 -14 -44 -16 -8 -1 -17 -6 -20 -11 -3 -4 -13
-9 -21 -11 -8 -2 -33 -12 -55 -22 -22 -10 -76 -34 -120 -53 -44 -19 -111 -50
-150 -68 -38 -18 -72 -33 -75 -34 -10 -3 -136 -62 -232 -109 -54 -26 -101 -46
-104 -46 -4 1 -10 -2 -13 -7 -3 -4 -96 -53 -206 -108 -110 -55 -203 -103 -206
-108 -3 -5 -10 -9 -15 -9 -10 0 -64 -27 -144 -71 -88 -49 -104 -57 -117 -57
-6 0 -13 -4 -15 -8 -1 -5 -48 -33 -103 -63 -55 -29 -109 -59 -120 -66 -11 -7
-29 -16 -41 -22 -11 -5 -50 -27 -85 -48 -35 -22 -71 -42 -79 -46 -18 -8 -20
-10 -305 -180 -121 -72 -222 -134 -225 -137 -7 -7 -42 -29 -60 -37 -8 -4 -19
-11 -25 -15 -5 -5 -57 -38 -115 -74 -114 -72 -572 -374 -580 -384 -3 -3 -32
-23 -65 -45 -33 -22 -62 -43 -65 -46 -3 -3 -34 -26 -70 -50 -36 -24 -91 -63
-122 -87 -31 -23 -60 -42 -63 -42 -4 0 -12 -6 -19 -12 -7 -7 -25 -22 -40 -33
-16 -11 -80 -60 -145 -108 -64 -48 -126 -96 -139 -105 -13 -9 -32 -24 -43 -32
-11 -8 -29 -23 -42 -32 -12 -10 -72 -57 -133 -105 -61 -49 -128 -101 -149
-118 -48 -38 -228 -186 -275 -226 -58 -50 -93 -79 -139 -117 -25 -20 -56 -48
-70 -61 -14 -13 -51 -44 -81 -70 -30 -25 -64 -55 -76 -66 -12 -11 -57 -51
-100 -90 -227 -204 -342 -314 -639 -610 -248 -248 -381 -385 -522 -541 -165
-182 -214 -239 -264 -298 -13 -16 -30 -35 -37 -43 -8 -7 -39 -44 -71 -81 -31
-37 -64 -76 -73 -87 -54 -64 -174 -213 -238 -295 -41 -52 -77 -97 -80 -100 -4
-3 -49 -61 -100 -130 -52 -69 -98 -129 -103 -135 -5 -5 -67 -91 -138 -190 -71
-99 -134 -185 -139 -192 -6 -7 -10 -15 -10 -18 0 -4 -6 -13 -13 -20 -25 -29
-37 -44 -37 -49 0 -4 -90 -139 -107 -161 -5 -5 -37 -55 -72 -110 -35 -55 -68
-101 -72 -103 -5 -2 -9 -10 -9 -18 0 -8 -5 -14 -11 -14 -5 0 -7 -4 -4 -10 3
-5 1 -10 -4 -10 -6 0 -11 -4 -11 -10 0 -5 -24 -47 -52 -93 -69 -108 -69 -109
-125 -202 -26 -44 -52 -83 -58 -87 -5 -4 -6 -8 -2 -8 4 0 -6 -20 -23 -44 -16
-25 -30 -47 -30 -49 0 -3 -20 -39 -44 -80 -24 -41 -61 -106 -81 -143 -21 -38
-50 -91 -65 -119 -91 -167 -110 -205 -100 -205 5 0 10 3 10 8 0 4 17 25 38 48
20 22 55 62 77 89 47 56 112 130 140 160 11 11 45 50 75 85 30 36 57 67 60 70
7 6 157 176 185 209 11 13 32 37 47 53 16 16 28 30 28 32 0 2 15 19 33 38 17
18 54 58 80 88 27 30 67 75 91 100 23 25 80 88 126 140 47 52 96 107 110 121
14 15 70 75 125 135 154 168 514 524 530 524 7 0 25 -15 41 -32 23 -29 90
-105 174 -198 76 -84 101 -113 165 -185 38 -44 74 -85 80 -91 5 -6 42 -46 80
-89 39 -43 81 -90 93 -104 13 -14 46 -51 72 -81 26 -30 59 -67 72 -81 12 -14
52 -59 88 -99 36 -41 72 -81 80 -90 8 -9 44 -50 80 -90 36 -41 72 -82 80 -90
8 -9 44 -49 80 -90 77 -87 130 -146 187 -209 l41 -46 820 0 c871 0 827 -2 787
41 -14 15 -137 153 -156 176 -9 10 -45 50 -79 88 -65 73 -66 74 -176 196 -39
43 -88 99 -110 124 -21 24 -52 60 -69 79 -16 19 -39 44 -50 55 -11 12 -54 59
-95 106 -41 47 -84 94 -95 106 -11 11 -31 34 -45 51 -31 38 -137 157 -170 192
-14 14 -56 62 -95 106 -38 44 -84 95 -102 112 -17 18 -30 33 -27 33 2 0 -10
15 -28 33 -18 19 -58 62 -88 97 -76 86 -174 196 -240 269 -14 15 -54 61 -90
102 -36 40 -76 85 -90 100 -22 24 -99 111 -151 171 -9 10 -45 51 -80 90 -35
39 -68 76 -74 83 -5 6 -20 23 -33 37 -27 29 -32 21 73 113 37 33 75 67 84 75
9 9 47 43 86 75 38 33 76 67 85 75 9 8 42 38 74 65 32 28 71 62 86 78 16 15
31 27 33 27 3 0 23 17 45 38 73 68 112 101 112 96 0 -4 8 3 18 14 16 20 64 62
168 149 28 24 62 53 76 65 14 13 49 43 79 68 29 25 63 54 75 65 12 11 41 36
64 55 24 19 48 40 54 45 6 6 54 46 106 90 52 44 101 87 110 95 9 8 38 33 65
55 27 22 54 46 61 53 7 6 15 12 18 12 2 0 24 18 48 39 34 31 242 206 343 289
12 9 48 39 80 67 33 27 66 54 73 60 8 5 26 21 42 35 16 14 42 35 57 47 15 12
40 32 55 45 15 13 42 35 60 50 18 14 112 91 209 170 96 79 190 154 208 168 18
14 38 30 44 35 7 6 57 47 112 90 55 44 102 82 105 85 3 3 25 21 50 40 25 19
54 42 65 52 11 9 67 54 125 99 58 44 107 85 108 90 2 5 9 9 15 9 7 0 28 15 48
33 21 17 49 41 65 52 48 35 148 114 171 135 12 11 27 20 33 20 5 0 10 3 10 8
0 4 17 18 37 32 20 14 41 30 47 35 18 17 356 271 569 428 224 165 215 158 312
227 39 28 81 58 94 68 13 9 53 38 90 64 36 26 71 51 76 56 6 4 25 17 43 27 17
11 32 23 32 27 0 4 7 8 15 8 8 0 15 5 15 10 0 6 6 10 13 10 7 0 23 9 35 20 12
11 25 20 31 20 5 0 11 4 13 8 2 7 160 117 239 167 9 5 49 32 90 60 85 57 108
71 129 81 8 4 17 10 20 14 9 12 150 100 160 100 6 0 10 5 10 10 0 6 4 10 10
10 5 0 48 25 95 55 46 30 86 55 88 55 2 0 45 25 95 55 50 30 96 55 101 55 5 0
11 4 13 8 2 5 50 34 108 65 93 50 117 67 70 50z"/>
<path d="M13137 7034 c-1 -1 -27 -5 -57 -8 -79 -7 -133 -17 -145 -25 -5 -4
-32 -16 -60 -26 -27 -10 -57 -23 -65 -30 -8 -7 -20 -14 -26 -16 -34 -12 -152
-120 -195 -179 -74 -102 -132 -247 -141 -352 -1 -16 -5 -28 -8 -28 -8 0 -5
-884 3 -929 4 -18 9 -41 12 -51 3 -10 8 -29 10 -42 8 -43 59 -153 95 -203 60
-86 74 -101 144 -154 107 -81 224 -128 376 -149 89 -12 284 -1 319 18 9 4 21
9 26 9 6 1 28 7 50 13 22 6 43 11 48 10 4 -1 7 2 7 7 0 5 16 15 35 22 19 7 35
17 35 21 0 4 6 8 13 8 20 0 167 130 167 147 0 4 9 16 19 27 33 36 100 181 121
262 28 109 33 177 34 424 l0 215 -375 3 -374 2 0 -142 0 -143 216 -3 217 -2 4
-24 c3 -13 1 -31 -4 -40 -6 -10 -5 -16 2 -16 6 0 8 -5 5 -11 -4 -6 -9 -38 -11
-72 -3 -71 -6 -85 -29 -147 -49 -138 -155 -241 -282 -274 -91 -24 -222 -19
-304 13 -13 5 -26 8 -29 8 -8 -2 -98 62 -125 88 -28 29 -89 115 -80 115 3 0
-1 13 -9 29 -28 52 -30 84 -32 486 -3 439 1 486 48 590 13 27 30 59 38 69 72
91 125 134 204 163 46 17 236 26 236 11 0 -5 4 -7 10 -3 11 7 134 -47 155 -69
8 -8 25 -23 38 -33 38 -30 96 -118 116 -175 l18 -53 161 0 c135 -1 162 1 162
13 0 51 -77 247 -104 264 -6 4 -7 8 -3 8 13 0 -76 111 -127 158 -97 90 -228
156 -356 181 -51 10 -197 21 -203 15z"/>
<path d="M10455 7021 c-3 -2 -26 -6 -53 -7 -69 -5 -101 -10 -109 -17 -3 -4
-16 -7 -28 -7 -60 0 -238 -91 -311 -158 -40 -36 -114 -144 -114 -166 0 -9 -4
-16 -9 -16 -5 0 -12 -17 -16 -37 -5 -21 -10 -45 -12 -53 -18 -70 -23 -230 -9
-305 4 -22 9 -49 11 -60 2 -11 4 -21 5 -22 2 -2 3 -6 4 -10 7 -35 61 -117 110
-165 78 -79 163 -125 276 -153 3 0 14 -4 25 -8 19 -6 51 -13 100 -22 11 -2 31
-7 45 -10 32 -8 54 -12 110 -20 25 -3 69 -11 97 -16 29 -6 54 -10 55 -9 2 0
37 -11 78 -25 69 -24 134 -60 170 -95 92 -91 90 -299 -5 -394 -65 -65 -164
-107 -285 -122 -25 -3 -55 -7 -67 -9 -13 -2 -23 1 -23 8 0 8 -3 9 -8 1 -8 -11
-77 -11 -182 0 -126 14 -292 84 -405 172 -29 23 -43 28 -50 20 -6 -6 -28 -33
-50 -61 -44 -55 -75 -92 -90 -109 -36 -40 -37 -44 -18 -64 21 -23 187 -132
200 -132 16 0 63 -25 63 -33 0 -5 4 -6 8 -3 5 3 20 -1 35 -9 15 -8 27 -12 27
-9 0 2 17 -3 38 -10 20 -8 80 -24 132 -36 82 -18 116 -20 240 -15 194 7 242
13 340 41 30 9 60 17 65 19 19 4 50 16 70 27 11 7 37 21 58 32 47 25 138 109
169 156 82 125 111 259 95 440 -12 123 -53 215 -131 294 -65 65 -106 100 -106
89 0 -3 -8 1 -17 9 -28 24 -217 88 -336 114 -28 6 -126 25 -152 29 -11 1 -49
11 -85 20 -36 9 -69 18 -75 19 -66 13 -149 61 -196 113 -39 43 -54 90 -53 175
1 97 33 169 102 226 52 42 131 84 144 76 4 -3 8 -1 8 3 0 5 8 9 18 9 9 1 35 4
57 9 72 14 233 7 285 -11 8 -3 26 -8 40 -10 14 -2 35 -9 48 -14 12 -6 34 -15
50 -22 46 -20 167 -91 170 -100 12 -28 46 2 120 106 91 129 91 117 -3 172 -95
57 -264 129 -325 139 -8 1 -31 5 -50 9 -19 4 -48 9 -65 11 -16 2 -30 4 -30 5
0 4 -196 5 -200 1z"/>
<path d="M6245 7011 c-3 -2 -50 -4 -107 -5 l-102 -1 0 -1075 0 -1075 364 3
c436 3 483 5 595 33 49 12 54 13 85 26 14 6 28 9 33 6 4 -2 7 1 7 6 0 6 3 10
8 9 9 -2 91 40 108 56 7 6 26 21 43 34 97 74 170 182 211 313 24 73 43 176 35
188 -3 6 -2 12 2 14 8 5 7 745 -1 827 -4 44 -12 89 -22 122 -3 9 -7 26 -9 37
-13 69 -108 224 -176 287 -69 64 -232 154 -277 154 -12 0 -24 5 -27 11 -4 5
-12 8 -18 6 -7 -2 -22 0 -34 4 -12 5 -51 11 -85 15 -69 7 -626 12 -633 5z
m562 -294 c6 -4 15 -3 18 3 5 8 11 7 21 -1 8 -6 14 -9 14 -6 0 10 121 -32 163
-56 100 -59 173 -167 197 -292 11 -59 10 -841 -2 -875 -2 -8 -10 -33 -16 -55
-13 -45 -56 -117 -93 -156 -58 -60 -169 -114 -262 -126 -28 -4 -153 -7 -277
-7 l-225 -1 -1 32 c0 18 -3 35 -6 38 -3 3 -2 21 2 40 4 19 5 37 2 40 -7 7 -4
146 3 153 3 3 0 11 -6 19 -9 10 -8 13 1 13 10 0 10 3 1 14 -8 10 -9 16 -1 21
6 3 7 11 3 18 -7 12 -6 147 2 155 3 3 0 11 -6 19 -9 10 -8 13 0 13 7 0 9 5 4
13 -11 18 -12 36 -2 42 4 3 4 16 -1 30 -6 15 -6 27 0 30 5 3 7 11 5 18 -10 25
-12 78 -4 83 4 2 4 16 -1 29 -6 15 -6 27 0 30 5 3 7 11 5 18 -10 25 -12 78 -4
83 4 2 4 16 -1 29 -6 15 -6 27 0 30 5 3 7 11 5 18 -10 25 -12 78 -4 83 4 2 4
16 -1 29 -6 15 -6 27 0 30 5 3 7 11 5 18 -10 25 -12 78 -4 83 4 2 4 16 -1 29
-6 15 -6 27 0 30 5 3 7 11 5 18 -10 25 -12 78 -4 83 4 2 4 16 -1 29 -5 14 -5
27 0 30 5 3 5 18 1 33 -16 60 -22 59 227 58 125 -1 232 -5 239 -9z"/>
<path d="M8002 7000 c-10 -7 -8 -932 1 -948 5 -6 5 -12 0 -12 -10 0 -10 -871
1 -888 4 -6 4 -12 -1 -12 -10 0 -10 -211 1 -228 4 -7 3 -12 -3 -12 -11 0 -9
-25 3 -37 12 -13 1365 -11 1369 2 3 9 2 263 -2 275 0 3 -241 5 -534 5 l-532 0
-1 166 c0 91 -4 171 -8 177 -4 7 -4 12 1 12 10 0 9 213 -1 229 -4 6 -3 11 3
11 5 0 8 8 6 19 -3 18 11 19 428 19 238 0 443 1 457 1 l25 1 0 143 0 142 -410
2 c-226 1 -432 2 -459 3 -37 0 -47 3 -43 14 3 7 0 19 -6 25 -6 6 -7 11 -1 11
10 0 11 51 0 68 -4 7 -4 12 1 12 10 0 9 52 -1 68 -4 7 -4 12 1 12 10 0 9 52
-1 68 -4 7 -4 12 1 12 10 0 9 73 -1 89 -4 6 -4 11 1 11 9 0 9 217 0 226 -3 4
-1 12 6 18 9 9 147 12 535 11 288 0 527 2 531 5 4 3 7 68 7 145 l0 141 -683 0
c-376 0 -687 -3 -691 -6z"/>
<path d="M11646 7001 c-1 -4 -2 -487 -1 -1076 l1 -1070 149 0 150 0 0 1075 0
1075 -148 1 c-82 0 -149 -2 -151 -5z"/>
<path d="M14421 7000 c-4 -3 -7 -487 -7 -1075 l0 -1071 140 2 c78 1 146 2 151
3 7 1 10 270 9 788 -1 585 1 783 10 770 23 -39 166 -262 173 -273 5 -5 13 -18
18 -27 24 -40 180 -282 185 -287 3 -3 10 -14 17 -25 26 -45 138 -220 143 -225
3 -3 10 -13 15 -22 17 -29 182 -286 256 -398 38 -58 73 -114 78 -125 5 -11 34
-56 64 -100 l54 -80 137 0 136 0 0 1075 0 1076 -147 0 -148 -1 -2 -725 c-1
-399 -3 -759 -3 -800 l-1 -75 -24 40 c-13 22 -29 45 -34 52 -6 7 -11 17 -11
23 0 5 -4 10 -10 10 -5 0 -10 5 -10 11 0 5 -17 36 -37 67 -21 32 -43 66 -50
77 -14 24 -207 329 -271 430 -25 39 -58 89 -73 112 -16 23 -29 44 -29 48 0 3
-11 21 -25 39 -14 18 -25 36 -25 39 0 4 -17 32 -39 64 -53 80 -101 156 -151
238 -23 38 -62 99 -85 135 -23 36 -64 99 -90 141 l-49 76 -128 -1 c-71 0 -133
-3 -137 -6z"/>
</g>
</svg>
